<?xml version="1.0" standalone="no"?>
<!DOCTYPE svg PUBLIC "-//W3C//DTD SVG 20010904//EN"
 "http://www.w3.org/TR/2001/REC-SVG-20010904/DTD/svg10.dtd">
<svg version="1.0" xmlns="http://www.w3.org/2000/svg"
 width="630.000000pt" height="299.000000pt" viewBox="0 0 630.000000 299.000000"
 preserveAspectRatio="xMidYMid meet">

<g transform="translate(0.000000,299.000000) scale(0.100000,-0.100000)"
fill="#000000" stroke="none">
<path d="M0 1495 l0 -1495 1750 0 1750 0 0 1495 0 1495 -1750 0 -1750 0 0
-1495z m691 745 c106 -53 99 -44 99 -145 0 -89 0 -91 -29 -108 -41 -24 -46
-22 -47 24 -1 23 -8 45 -15 50 -11 6 -10 14 4 44 21 44 22 69 2 85 -27 23 -44
4 -47 -52 -3 -47 -6 -53 -27 -56 -30 -5 -41 12 -41 66 0 46 -19 64 -45 42 -20
-16 -19 -41 2 -85 14 -28 15 -38 5 -44 -7 -4 -14 -26 -15 -49 -1 -47 -6 -49
-48 -25 -29 17 -29 18 -29 109 l0 92 78 41 c42 22 81 41 86 41 5 0 35 -13 67
-30z m-84 -226 c8 -21 -13 -42 -28 -27 -13 13 -5 43 11 43 6 0 13 -7 17 -16z
m70 0 c8 -21 -13 -42 -28 -27 -13 13 -5 43 11 43 6 0 13 -7 17 -16z m-180
-466 c-2 -7 -11 -12 -21 -10 -22 4 -20 -11 5 -26 32 -21 22 -56 -18 -60 -24
-2 -33 1 -33 11 0 10 7 13 20 10 11 -3 20 0 20 5 0 6 -9 16 -20 22 -19 10 -27
40 -13 53 12 13 65 8 60 -5z m43 -13 c0 -18 5 -25 20 -25 15 0 20 7 20 25 0
16 6 25 15 25 12 0 15 -13 15 -55 0 -42 -3 -55 -15 -55 -8 0 -15 9 -15 20 0
13 -7 20 -20 20 -13 0 -20 -7 -20 -20 0 -11 -7 -20 -15 -20 -12 0 -15 13 -15
55 0 42 3 55 15 55 9 0 15 -9 15 -25z m168 13 c7 -7 12 -26 12 -43 0 -38 -16
-55 -50 -55 -34 0 -50 17 -50 55 0 38 16 55 50 55 14 0 31 -5 38 -12z m52 -8
c0 -11 5 -20 10 -20 6 0 10 9 10 20 0 13 7 20 20 20 16 0 20 -7 21 -32 l1 -33
7 30 c3 17 14 31 24 33 10 2 15 -1 12 -10 -2 -7 -9 -32 -15 -55 -12 -49 -34
-56 -48 -15 l-10 27 -1 -27 c-1 -21 -6 -28 -20 -28 -15 0 -22 11 -30 50 -14
63 -14 60 4 60 8 0 15 -9 15 -20z m190 7 c0 -8 -10 -13 -22 -13 -19 1 -23 -4
-23 -29 0 -23 5 -31 23 -33 12 -2 22 -8 22 -13 0 -13 -54 -11 -68 3 -17 17
-15 64 4 82 19 19 64 21 64 3z m95 -39 c18 -62 18 -58 4 -58 -7 0 -18 8 -25
18 -13 16 -15 16 -28 0 -16 -21 -40 -24 -33 -4 3 8 11 32 18 55 18 60 44 56
64 -11z m95 42 c0 -5 -9 -10 -20 -10 -25 0 -26 -17 -1 -25 25 -7 35 -34 20
-51 -15 -19 -69 -18 -69 0 0 9 7 12 19 9 29 -7 34 13 6 25 -24 11 -33 40 -18
55 10 11 63 8 63 -3z m90 0 c0 -5 -9 -10 -20 -10 -11 0 -20 -7 -20 -15 0 -8 9
-15 20 -15 11 0 20 -4 20 -10 0 -5 -9 -10 -20 -10 -11 0 -20 -4 -20 -10 0 -5
9 -10 20 -10 11 0 20 -4 20 -10 0 -5 -16 -10 -35 -10 l-35 0 0 55 0 55 35 0
c19 0 35 -4 35 -10z m-20 -244 c0 -3 -7 -12 -16 -20 -13 -14 -13 -16 -1 -16 8
0 17 9 20 20 6 24 57 29 57 5 0 -8 -6 -15 -12 -15 -9 0 -8 -3 2 -10 12 -7 12
-12 2 -22 -6 -6 -12 -29 -12 -50 0 -31 -4 -38 -20 -38 -17 0 -20 7 -20 40 0
29 -4 40 -15 40 -11 0 -15 -11 -15 -40 0 -33 -3 -40 -19 -40 -16 0 -20 9 -23
53 -5 62 13 97 48 97 13 0 24 -2 24 -4z m383 -3 c4 -3 2 -12 -4 -20 -9 -9 -8
-13 0 -13 7 0 11 -21 11 -55 0 -49 -2 -55 -20 -55 -19 0 -20 6 -19 75 1 71 11
90 32 68z m-1068 -18 c0 -5 -12 -11 -27 -13 -36 -4 -35 -15 2 -29 22 -8 30
-18 30 -35 0 -34 -18 -48 -62 -48 -30 0 -38 4 -38 18 0 15 6 18 30 14 38 -5
38 8 0 30 -31 18 -39 45 -18 66 15 15 83 12 83 -3z m595 0 c0 -9 -9 -15 -25
-15 -14 0 -25 -4 -25 -10 0 -5 11 -10 25 -10 16 0 25 -6 25 -15 0 -9 -9 -15
-25 -15 -16 0 -25 -6 -25 -15 0 -9 9 -15 25 -15 16 0 25 -6 25 -15 0 -11 -12
-15 -45 -15 l-45 0 0 70 0 70 45 0 c33 0 45 -4 45 -15z m410 1 c0 -8 6 -16 13
-19 10 -4 10 -7 0 -18 -15 -16 -17 -59 -3 -59 6 0 10 -7 10 -16 0 -11 -8 -14
-27 -12 -24 3 -28 8 -31 38 -2 19 -9 41 -15 49 -9 11 -9 15 1 18 6 3 12 11 12
19 0 8 9 14 20 14 11 0 20 -6 20 -14z m-948 -53 c2 -21 8 -38 13 -38 6 0 11
17 13 38 3 29 7 37 23 37 16 0 19 -7 19 -55 l0 -55 -45 0 c-51 0 -65 16 -65
74 0 29 4 36 19 36 16 0 20 -8 23 -37z m184 12 c13 -21 14 -28 2 -52 -7 -16
-23 -29 -36 -31 -14 -2 -22 -10 -22 -23 0 -12 -7 -19 -20 -19 -18 0 -20 7 -20
74 l0 74 40 0 c32 1 44 -4 56 -23z m112 13 c7 -7 12 -22 12 -35 0 -19 -6 -23
-32 -24 l-33 -1 29 -7 c16 -3 31 -12 34 -18 5 -17 -70 -17 -86 -1 -15 15 -16
53 -2 79 12 22 59 26 78 7z m92 -2 c0 -8 -7 -16 -15 -20 -9 -3 -15 -19 -15
-41 0 -28 -4 -35 -20 -35 -18 0 -20 7 -20 55 l0 55 35 0 c23 0 35 -5 35 -14z
m388 2 c7 -7 12 -22 12 -35 0 -19 -6 -23 -32 -24 l-33 -1 29 -7 c16 -3 31 -12
34 -18 5 -17 -70 -17 -86 -1 -15 15 -16 53 -2 79 12 22 59 26 78 7z m102 -3
c0 -8 -9 -15 -20 -15 -15 0 -20 -7 -20 -25 0 -18 5 -25 20 -25 11 0 20 -7 20
-15 0 -18 -50 -21 -68 -3 -17 17 -15 64 4 82 20 21 64 21 64 1z m196 -17 l7
-33 9 33 c6 23 14 32 29 32 22 0 21 -8 -7 -77 -20 -47 -48 -44 -63 8 -7 23
-15 47 -18 55 -3 9 2 14 15 14 15 0 22 -9 28 -32z m152 20 c7 -7 12 -22 12
-35 0 -19 -6 -23 -32 -24 l-33 -1 29 -7 c16 -3 31 -12 34 -18 5 -17 -70 -17
-86 -1 -15 15 -16 53 -2 79 12 22 59 26 78 7z m121 -333 c1 -69 0 -75 -19 -75
-18 0 -20 6 -20 55 0 34 4 55 11 55 8 0 9 4 0 13 -12 15 -5 27 14 27 9 0 13
-24 14 -75z m471 1 l0 -75 -42 2 c-34 2 -45 7 -57 28 -13 24 -13 29 2 53 10
14 26 26 37 26 13 0 20 7 20 20 0 13 7 20 20 20 18 0 20 -7 20 -74z m-1860 50
c0 -9 -12 -16 -32 -18 -30 -3 -33 -6 -33 -38 0 -32 3 -35 33 -38 20 -2 32 -9
32 -18 0 -19 -59 -19 -88 2 -29 20 -30 76 -2 104 24 24 90 28 90 6z m300 0 c0
-8 6 -16 13 -19 10 -4 10 -7 0 -18 -15 -16 -17 -59 -3 -59 6 0 10 -7 10 -16 0
-11 -8 -14 -27 -12 -24 3 -28 8 -31 38 -2 19 -9 41 -15 49 -9 11 -9 15 1 18 6
3 12 11 12 19 0 8 9 14 20 14 11 0 20 -6 20 -14z m280 0 c0 -8 6 -16 13 -19
10 -4 10 -7 0 -18 -15 -16 -17 -59 -3 -59 6 0 10 -7 10 -16 0 -11 -8 -14 -27
-12 -24 3 -28 8 -31 38 -4 44 -13 53 -43 42 l-24 -9 23 -7 c18 -6 22 -14 20
-34 -3 -23 -8 -27 -40 -30 -29 -2 -38 0 -38 12 0 10 9 16 23 17 l22 0 -23 11
c-17 8 -22 19 -20 37 3 23 8 26 51 29 33 2 47 7 47 18 0 7 9 14 20 14 11 0 20
-6 20 -14z m168 2 c29 -29 7 -78 -35 -78 -18 0 -23 -6 -23 -25 0 -18 -5 -25
-20 -25 -18 0 -20 7 -20 70 l0 70 43 0 c24 0 48 -5 55 -12z m572 -2 c0 -8 6
-16 13 -19 10 -4 10 -7 0 -18 -15 -16 -17 -59 -3 -59 6 0 10 -7 10 -16 0 -11
-8 -14 -27 -12 -24 3 -28 8 -31 38 -2 19 -9 41 -15 49 -9 11 -9 15 1 18 6 3
12 11 12 19 0 8 9 14 20 14 11 0 20 -6 20 -14z m420 -56 c0 -63 -2 -70 -20
-70 -18 0 -20 7 -20 70 0 63 2 70 20 70 18 0 20 -7 20 -70z m-1634 16 c13 -22
14 -29 2 -53 -15 -31 -59 -43 -84 -22 -17 14 -19 70 -2 87 21 21 66 14 84 -12z
m124 5 c5 -11 10 -36 10 -55 0 -29 -4 -36 -19 -36 -16 0 -20 8 -23 38 -4 46
-22 45 -26 -3 -2 -27 -8 -35 -23 -35 -16 0 -19 7 -19 55 l0 55 45 0 c34 0 47
-5 55 -19z m188 7 c7 -7 12 -22 12 -35 0 -19 -6 -23 -32 -24 l-33 -1 29 -7
c16 -3 31 -12 34 -18 5 -17 -70 -17 -86 -1 -15 15 -16 53 -2 79 12 22 59 26
78 7z m422 -2 c0 -8 -7 -16 -15 -20 -9 -3 -15 -19 -15 -41 0 -28 -4 -35 -20
-35 -18 0 -20 7 -20 55 l0 55 35 0 c23 0 35 -5 35 -14z m106 -10 c13 -22 14
-29 2 -53 -15 -31 -59 -43 -84 -22 -17 14 -19 70 -2 87 21 21 66 14 84 -12z
m184 4 c6 -10 10 -35 10 -54 0 -29 -4 -36 -19 -36 -16 0 -20 8 -23 38 -2 20
-7 37 -13 37 -5 0 -11 -17 -13 -37 -3 -30 -7 -38 -23 -38 -16 0 -19 7 -19 41
0 24 -4 38 -10 34 -5 -3 -10 -22 -10 -41 0 -27 -4 -34 -20 -34 -18 0 -20 7
-20 55 l0 55 75 -1 c62 -1 77 -4 85 -19z m118 8 c7 -7 12 -27 12 -45 0 -35
-21 -53 -62 -53 -32 0 -48 18 -48 55 0 17 5 36 12 43 16 16 70 16 86 0z m258
-12 c13 -22 14 -29 2 -53 -11 -23 -20 -28 -48 -28 -27 0 -38 6 -49 26 -13 24
-13 29 2 53 23 35 70 36 93 2z m124 5 c5 -11 10 -36 10 -55 0 -29 -4 -36 -19
-36 -16 0 -20 8 -23 38 -4 46 -22 45 -26 -3 -2 -27 -8 -35 -23 -35 -16 0 -19
7 -19 55 l0 55 45 0 c34 0 47 -5 55 -19z m338 7 c7 -7 12 -22 12 -35 0 -19 -6
-23 -32 -24 l-33 -1 29 -7 c16 -3 31 -12 34 -18 5 -17 -70 -17 -86 -1 -15 15
-16 53 -2 79 12 22 59 26 78 7z m112 -14 c6 -14 10 -39 10 -55 0 -28 -2 -29
-44 -29 -71 0 -88 50 -22 69 30 9 30 9 4 10 -53 2 -45 31 9 31 27 0 35 -5 43
-26z m100 16 c0 -6 -10 -14 -22 -19 l-23 -8 23 -7 c18 -6 22 -14 20 -34 -3
-23 -8 -27 -40 -30 -29 -2 -38 0 -38 12 0 10 9 16 23 17 l22 0 -22 11 c-22 11
-31 46 -16 61 10 11 73 8 73 -3z"/>
<path d="M654 1526 c-9 -23 0 -51 16 -51 10 0 15 10 15 29 0 32 -21 47 -31 22z"/>
<path d="M710 1215 c0 -17 5 -25 13 -22 6 2 12 12 12 22 0 10 -6 20 -12 23 -8
2 -13 -6 -13 -23z"/>
<path d="M2334 915 c-3 -8 -3 -19 1 -25 11 -18 25 -11 25 15 0 27 -17 34 -26
10z"/>
<path d="M1230 945 c0 -8 7 -15 15 -15 8 0 15 7 15 15 0 8 -7 15 -15 15 -8 0
-15 -7 -15 -15z"/>
<path d="M590 905 c0 -17 5 -25 13 -22 6 2 12 12 12 22 0 10 -6 20 -12 23 -8
2 -13 -6 -13 -23z"/>
<path d="M1430 905 c0 -17 5 -25 13 -22 6 2 12 12 12 22 0 10 -6 20 -12 23 -8
2 -13 -6 -13 -23z"/>
<path d="M1730 905 c0 -16 6 -25 15 -25 9 0 15 9 15 25 0 16 -6 25 -15 25 -9
0 -15 -9 -15 -25z"/>
<path d="M1983 914 c-8 -21 13 -42 28 -27 13 13 5 43 -11 43 -6 0 -13 -7 -17
-16z"/>
<path d="M2565 890 c-3 -5 1 -10 9 -10 9 0 16 5 16 10 0 6 -4 10 -9 10 -6 0
-13 -4 -16 -10z"/>
<path d="M5069 2313 c-13 -16 -12 -17 4 -4 16 13 21 21 13 21 -2 0 -10 -8 -17
-17z"/>
<path d="M5006 2233 c-6 -14 -5 -15 5 -6 7 7 10 15 7 18 -3 3 -9 -2 -12 -12z"/>
<path d="M4966 2183 c-6 -14 -5 -15 5 -6 7 7 10 15 7 18 -3 3 -9 -2 -12 -12z"/>
<path d="M5007 2105 c-9 -19 -15 -35 -12 -35 7 0 37 61 33 66 -3 2 -12 -12
-21 -31z"/>
<path d="M5685 2100 c-3 -6 1 -7 9 -4 18 7 21 14 7 14 -6 0 -13 -4 -16 -10z"/>
<path d="M5530 2035 c-14 -8 -20 -14 -15 -14 6 0 21 6 35 14 14 8 21 14 15 14
-5 0 -21 -6 -35 -14z"/>
<path d="M5599 2003 c-13 -17 -13 -17 6 -3 11 8 22 16 24 17 2 2 0 3 -6 3 -6
0 -17 -8 -24 -17z"/>
<path d="M5043 2003 c9 -2 23 -2 30 0 6 3 -1 5 -18 5 -16 0 -22 -2 -12 -5z"/>
<path d="M5450 2000 c-9 -6 -10 -10 -3 -10 6 0 15 5 18 10 8 12 4 12 -15 0z"/>
<path d="M4875 1920 c27 -12 43 -12 25 0 -8 5 -22 9 -30 9 -10 0 -8 -3 5 -9z"/>
<path d="M5049 1893 l-34 -38 38 34 c20 19 37 36 37 38 0 8 -8 0 -41 -34z"/>
<path d="M5254 1914 c-18 -14 -18 -14 6 -3 31 14 36 19 24 19 -6 0 -19 -7 -30
-16z"/>
<path d="M5449 1899 l-24 -20 28 17 c15 9 27 18 27 20 0 8 -8 4 -31 -17z"/>
<path d="M4995 1839 c-4 -6 -5 -12 -2 -15 2 -3 7 2 10 11 7 17 1 20 -8 4z"/>
<path d="M4689 1764 c-11 -13 -10 -27 4 -82 36 -137 161 -348 273 -460 52 -52
69 -63 91 -60 24 3 28 8 31 41 11 126 -172 447 -311 548 -45 33 -69 36 -88 13z
m221 -326 c0 -28 -18 -58 -35 -58 -19 0 -19 14 0 30 16 13 20 59 8 76 -5 5 0
1 10 -9 9 -11 17 -28 17 -39z"/>
<path d="M5233 1754 c9 -11 14 -24 10 -27 -3 -4 -1 -7 5 -7 19 0 14 15 -10 36
-23 19 -23 19 -5 -2z"/>
<path d="M5417 1759 c7 -7 15 -10 18 -7 3 3 -2 9 -12 12 -14 6 -15 5 -6 -5z"/>
<path d="M4627 1635 c-15 -40 -50 -108 -78 -152 -61 -93 -214 -246 -300 -299
-61 -38 -61 -38 -56 -78 4 -31 1 -42 -15 -56 -15 -12 -19 -22 -14 -38 8 -25
27 -28 57 -9 17 10 22 9 30 -5 12 -22 41 -23 80 -3 29 15 29 15 39 -12 6 -15
15 -37 20 -48 100 -221 116 -245 154 -245 53 1 166 76 166 110 0 10 -16 28
-35 40 -20 12 -35 30 -35 41 0 10 -11 26 -24 34 -15 10 -22 23 -19 33 2 10 -7
30 -21 45 -15 16 -21 29 -14 33 6 4 8 22 4 44 l-6 37 63 19 c51 15 93 18 229
18 l167 -2 -48 38 c-101 80 -262 336 -293 465 -7 28 -14 53 -17 57 -4 4 -18
-26 -34 -67z m81 -138 c12 -28 22 -55 22 -58 0 -9 -100 -73 -104 -68 -2 2 -11
19 -20 36 l-16 33 42 55 c24 30 45 55 48 55 3 0 15 -24 28 -53z m-142 -124 c7
-10 14 -23 14 -29 0 -11 -188 -150 -217 -161 -7 -3 -14 2 -14 11 -1 9 -2 20
-3 25 -1 5 35 35 79 68 44 33 89 70 99 81 23 26 25 27 42 5z"/>
<path d="M5060 1530 c-9 -6 -10 -10 -3 -10 6 0 15 5 18 10 8 12 4 12 -15 0z"/>
<path d="M5418 1463 c12 -2 30 -2 40 0 9 3 -1 5 -23 4 -22 0 -30 -2 -17 -4z"/>
<path d="M5573 1443 c9 -2 23 -2 30 0 6 3 -1 5 -18 5 -16 0 -22 -2 -12 -5z"/>
<path d="M5663 1433 c9 -2 23 -2 30 0 6 3 -1 5 -18 5 -16 0 -22 -2 -12 -5z"/>
<path d="M5758 1423 c6 -2 18 -2 25 0 6 3 1 5 -13 5 -14 0 -19 -2 -12 -5z"/>
<path d="M5178 1253 c7 -3 16 -2 19 1 4 3 -2 6 -13 5 -11 0 -14 -3 -6 -6z"/>
<path d="M5487 1240 c3 -11 9 -22 13 -25 5 -3 6 4 3 15 -3 11 -9 22 -13 25 -5
3 -6 -4 -3 -15z"/>
<path d="M5428 1203 c7 -3 16 -2 19 1 4 3 -2 6 -13 5 -11 0 -14 -3 -6 -6z"/>
</g>
</svg>
