<?xml version="1.0" standalone="no"?>
<!DOCTYPE svg PUBLIC "-//W3C//DTD SVG 20010904//EN"
 "http://www.w3.org/TR/2001/REC-SVG-20010904/DTD/svg10.dtd">
<svg version="1.0" xmlns="http://www.w3.org/2000/svg"
 width="1920.000000pt" height="1080.000000pt" viewBox="0 0 1920.000000 1080.000000"
 preserveAspectRatio="xMidYMid meet">

<g transform="translate(0.000000,1080.000000) scale(0.100000,-0.100000)"
fill="#000000" stroke="none">
<path d="M6965 7851 c-52 -13 -113 -50 -139 -84 -60 -79 -56 104 -56 -2369 l0
-2263 24 -50 c25 -54 70 -98 126 -124 32 -14 249 -16 2285 -19 1776 -2 2258 0
2290 10 78 24 146 86 171 156 11 30 13 445 14 2288 0 2522 7 2306 -74 2389
-22 24 -59 49 -81 56 -33 12 -431 14 -2285 15 -1235 1 -2258 -1 -2275 -5z
m2485 -892 c579 -78 1080 -495 1268 -1054 59 -177 76 -289 76 -505 0 -165 -3
-212 -23 -303 -104 -492 -404 -888 -838 -1106 -128 -64 -275 -113 -415 -140
l-48 -8 0 553 0 554 184 0 184 0 7 53 c4 28 18 120 31 204 13 84 24 161 24
172 0 21 -5 21 -216 21 l-216 0 4 193 c3 183 4 194 28 237 16 28 43 55 74 75
48 29 53 30 198 33 l148 4 0 193 0 192 -41 7 c-92 15 -328 24 -399 16 -246
-29 -409 -167 -476 -405 -13 -46 -18 -115 -22 -302 l-4 -243 -199 0 -199 0 0
-225 0 -225 200 0 200 0 0 -548 c0 -302 -2 -551 -5 -554 -8 -7 -158 27 -246
56 -588 194 -1004 712 -1070 1331 -70 661 280 1293 876 1580 296 142 588 188
915 144z"/>
<path d="M14745 6448 c-30 -18 -52 -48 -71 -98 -9 -25 -28 -67 -40 -94 -13
-28 -24 -53 -24 -57 0 -4 -18 -47 -40 -94 -22 -47 -40 -88 -40 -90 0 -3 -13
-33 -28 -67 -16 -35 -34 -79 -42 -98 -7 -19 -42 -101 -77 -182 -34 -80 -63
-149 -63 -151 0 -3 -18 -43 -39 -89 -21 -45 -67 -148 -101 -228 -34 -80 -70
-163 -81 -185 -41 -89 -79 -188 -79 -207 0 -27 26 -74 45 -82 38 -14 91 -6
113 17 12 13 22 29 22 36 0 7 6 27 14 44 8 18 62 144 121 280 58 136 112 262
120 280 8 18 71 165 140 327 70 162 146 340 170 395 24 55 51 120 61 145 9 25
23 52 31 61 21 25 16 84 -9 113 -27 30 -74 41 -103 24z"/>
<path d="M3878 6440 c-146 -26 -280 -96 -388 -202 -92 -90 -133 -149 -180
-263 l-26 -60 -144 -12 c-673 -57 -642 -52 -663 -103 -12 -28 -1 -221 32 -555
6 -60 13 -146 16 -190 3 -44 10 -123 15 -175 6 -52 22 -232 35 -400 14 -168
28 -327 31 -355 3 -27 13 -141 23 -252 16 -189 18 -204 41 -229 25 -26 25 -26
135 -21 61 4 292 22 515 42 223 19 413 35 422 35 32 0 68 51 68 95 0 42 -43
549 -60 715 -22 212 -30 384 -18 391 6 4 39 11 72 14 212 24 413 80 536 149
73 41 71 39 170 137 95 95 150 186 192 319 19 63 23 96 22 200 0 147 -17 219
-75 330 -96 185 -230 298 -434 367 -78 26 -254 39 -337 23z m278 -85 c215 -50
393 -214 463 -422 33 -97 44 -200 32 -288 -40 -286 -222 -489 -506 -564 -58
-16 -230 -13 -303 4 -115 27 -208 81 -302 175 -135 134 -192 274 -192 465 0
80 6 117 27 185 39 121 78 184 170 275 88 88 170 135 285 166 81 22 242 24
326 4z m-1363 -600 c9 -20 24 -38 33 -42 14 -5 197 7 368 24 l59 6 -6 -284
c-7 -363 -32 -518 -112 -710 -35 -83 -21 -100 46 -55 132 90 458 217 459 179
0 -4 20 -237 45 -517 40 -461 42 -512 29 -538 -8 -16 -25 -33 -37 -37 -32 -12
-875 -84 -903 -77 -13 4 -31 18 -40 32 -17 26 -18 33 -88 854 -14 162 -41 477
-61 699 -19 223 -35 410 -35 417 0 7 11 25 24 41 18 21 36 29 77 34 117 14
124 12 142 -26z"/>
<path d="M3975 6125 c-137 -13 -267 -24 -287 -24 -37 -1 -38 -2 -38 -36 0 -30
3 -35 24 -35 17 0 26 -7 30 -25 9 -37 0 -45 -49 -45 -53 0 -93 -14 -102 -36
-3 -9 7 -57 23 -106 34 -106 58 -133 115 -125 l37 5 6 -47 c14 -103 67 -144
183 -142 l73 1 0 -29 c0 -28 -3 -30 -42 -33 -40 -3 -43 -5 -40 -30 3 -24 0
-27 -35 -30 l-38 -3 -3 -55 c-1 -30 2 -61 6 -68 7 -10 46 -9 205 4 l197 17 0
31 c0 17 -3 48 -7 70 -6 38 -7 38 -44 33 -33 -4 -38 -2 -43 19 -6 21 -12 24
-51 24 -43 0 -45 1 -45 29 0 28 2 29 63 36 67 8 120 34 139 68 7 12 15 51 18
86 5 59 7 64 30 67 50 7 65 14 77 33 17 27 38 180 29 215 l-7 28 -77 -3 -77
-4 0 30 c0 24 5 31 23 33 19 3 23 9 20 35 -4 41 0 41 -313 12z m389 -232 c-14
-92 -27 -113 -70 -113 -18 0 -24 7 -28 33 -11 73 -16 154 -10 160 4 4 33 7 64
7 l57 0 -13 -87z m-653 4 c4 -15 9 -57 11 -94 l3 -68 -40 0 -40 0 -27 75 c-38
106 -37 108 20 113 64 5 65 4 73 -26z m300 -1 c16 -28 28 -35 64 -41 25 -3 45
-10 45 -15 0 -5 -12 -22 -26 -39 -17 -20 -23 -38 -20 -51 3 -11 9 -29 12 -40
6 -23 -19 -27 -59 -9 -19 9 -31 7 -63 -10 l-39 -21 -3 47 c-3 39 -9 52 -35 74
-36 30 -33 38 15 48 26 5 37 15 53 49 11 23 23 42 28 42 4 0 17 -15 28 -34z"/>
<path d="M3538 4103 c-16 -2 -28 -10 -28 -16 0 -7 -4 -6 -10 3 -8 13 -11 13
-22 1 -11 -11 -11 -13 1 -6 10 5 12 2 8 -11 -12 -38 -19 -99 -12 -92 4 4 14 0
22 -8 10 -10 26 -13 51 -8 64 10 63 9 61 73 -2 53 -4 58 -23 54 -17 -4 -18 -3
-6 6 17 12 13 12 -42 4z"/>
<path d="M3032 4051 c-19 -11 8 -21 59 -21 21 0 39 -4 39 -10 0 -5 -22 -10
-50 -10 -36 0 -50 -4 -50 -14 0 -7 -3 -28 -6 -45 l-6 -31 77 0 78 0 -7 46 c-3
26 -6 53 -6 60 0 9 -14 14 -42 16 l-43 1 45 7 45 7 -60 1 c-33 1 -66 -2 -73
-7z m35 -7 c-3 -3 -12 -4 -19 -1 -8 3 -5 6 6 6 11 1 17 -2 13 -5z"/>
<path d="M14002 6293 c37 -75 48 -123 28 -123 -19 0 -10 -18 26 -54 20 -20 33
-36 29 -36 -4 0 4 -9 18 -20 31 -25 58 -27 29 -2 -14 13 -18 22 -11 33 6 10 9
10 9 2 0 -7 3 -12 8 -10 4 1 8 -2 9 -7 1 -5 6 -12 11 -15 14 -9 27 -55 13 -47
-19 12 -12 -1 18 -33 16 -17 35 -31 43 -31 9 0 9 3 2 8 -14 9 -74 150 -74 173
0 9 8 20 17 24 14 5 1 21 -66 86 -47 43 -91 79 -98 79 -8 0 -11 5 -8 10 3 6 1
10 -4 10 -6 0 -11 7 -11 15 0 8 -6 15 -13 15 -9 0 -1 -25 25 -77z m58 -30 c0
-7 -4 -13 -10 -13 -5 0 -10 9 -10 20 0 11 -4 20 -10 20 -5 0 -10 5 -10 12 0 6
9 3 20 -7 11 -10 20 -24 20 -32z m60 -73 c0 -5 -4 -10 -10 -10 -5 0 -10 5 -10
10 0 6 5 10 10 10 6 0 10 -4 10 -10z m-9 -49 c-6 -10 -7 -21 -4 -25 3 -3 2 -6
-3 -6 -17 0 -33 22 -27 36 3 8 14 14 24 14 16 0 18 -3 10 -19z"/>
<path d="M13634 5942 c4 -7 24 -12 44 -12 26 0 41 -6 49 -19 10 -15 10 -21 0
-24 -7 -3 -6 -6 4 -6 26 -2 69 -48 66 -72 -2 -19 5 -23 63 -34 85 -16 214 -33
219 -28 6 5 -27 29 -69 51 -78 40 -91 53 -85 83 6 25 4 29 -17 30 -13 0 -32 2
-43 4 -11 2 -54 8 -95 14 -41 6 -90 13 -109 17 -25 5 -32 4 -27 -4z m230 -59
c0 -13 3 -23 8 -23 4 0 8 -4 8 -10 0 -5 -9 -10 -20 -10 -11 0 -20 5 -20 11 0
7 -7 17 -17 24 -21 15 -8 37 20 33 16 -2 22 -10 21 -25z m66 -103 c13 -8 13
-10 -2 -10 -9 0 -20 5 -23 10 -8 13 5 13 25 0z"/>
<path d="M13749 5516 c10 -12 5 -19 -26 -40 -21 -14 -48 -26 -61 -26 -31 0
-96 -31 -85 -40 9 -9 268 -22 276 -14 10 10 -5 43 -22 47 -9 3 1 5 22 6 24 1
40 7 44 17 4 11 13 14 29 10 18 -5 22 -3 18 8 -4 11 0 13 15 9 22 -5 86 15 76
25 -2 3 -71 7 -151 8 -125 3 -145 2 -135 -10z m-28 -79 c-13 -13 -26 -3 -16
12 3 6 11 8 17 5 6 -4 6 -10 -1 -17z"/>
<path d="M15883 5418 c-4 -7 -31 -70 -59 -140 -29 -70 -73 -176 -99 -235 -87
-200 -103 -238 -125 -290 -13 -29 -26 -53 -31 -53 -5 0 -9 -16 -9 -35 0 -42
11 -50 140 -100 52 -20 118 -47 145 -60 28 -12 91 -39 140 -60 50 -21 124 -55
166 -76 71 -35 102 -44 140 -41 17 2 60 82 77 142 12 46 150 366 213 497 48
100 57 135 41 160 -4 7 -35 24 -67 39 -33 14 -84 37 -113 50 -29 13 -55 24
-58 24 -3 0 -36 14 -72 31 -151 70 -373 159 -396 159 -14 0 -28 -6 -33 -12z"/>
<path d="M15503 4288 c-102 -107 -205 -215 -243 -256 l-30 -32 87 -84 c49 -46
104 -97 123 -115 l35 -32 60 63 c32 35 113 119 179 186 l119 124 -119 113
c-65 63 -122 114 -126 114 -3 1 -42 -36 -85 -81z"/>
</g>
</svg>
