<?xml version="1.0" standalone="no"?>
<!DOCTYPE svg PUBLIC "-//W3C//DTD SVG 20010904//EN"
 "http://www.w3.org/TR/2001/REC-SVG-20010904/DTD/svg10.dtd">
<svg version="1.0" xmlns="http://www.w3.org/2000/svg"
 width="323.000000pt" height="156.000000pt" viewBox="0 0 323.000000 156.000000"
 preserveAspectRatio="xMidYMid meet">

<g transform="translate(0.000000,156.000000) scale(0.100000,-0.100000)"
fill="#000000" stroke="none">
<path d="M0 780 l0 -780 1615 0 1615 0 0 780 0 780 -1615 0 -1615 0 0 -780z
m1740 611 c0 -6 -4 -13 -10 -16 -5 -3 -10 1 -10 9 0 9 5 16 10 16 6 0 10 -4
10 -9z m-295 -22 c6 -2 9 -9 7 -16 -2 -9 9 -13 34 -13 l37 0 -23 -20 c-13 -11
-29 -20 -37 -20 -12 0 -17 -11 -14 -35 0 -5 -13 -10 -29 -11 -34 -1 -40 11
-10 21 29 9 24 23 -12 34 -18 5 -27 10 -20 10 8 1 25 10 38 20 24 19 24 20 4
26 -11 3 -20 11 -20 16 0 6 6 6 18 0 9 -5 22 -10 27 -12z m289 -12 c5 4 4 -2
-3 -14 -6 -13 -7 -24 -2 -27 8 -5 8 -27 1 -46 -1 -3 -2 -8 -1 -12 2 -12 -11
-10 -41 6 -26 14 -29 13 -43 -7 -19 -27 -26 -19 -12 13 6 14 11 34 11 45 1 13
9 21 23 23 13 2 24 13 28 30 l7 27 12 -23 c7 -12 16 -19 20 -15z m-574 14 c0
-6 -4 -13 -10 -16 -5 -3 -10 1 -10 9 0 9 5 16 10 16 6 0 10 -4 10 -9z m42 -39
c-6 -2 -8 -10 -5 -18 3 -7 9 -11 14 -8 5 3 9 -1 9 -9 0 -25 -30 -29 -49 -6
-20 25 -16 73 5 65 8 -3 14 0 14 7 0 7 6 3 12 -7 8 -15 8 -21 0 -24z m293 28
c3 -5 1 -10 -4 -10 -6 0 -11 5 -11 10 0 6 2 10 4 10 3 0 8 -4 11 -10z m130
-30 c3 -5 1 -10 -4 -10 -6 0 -11 5 -11 10 0 6 2 10 4 10 3 0 8 -4 11 -10z
m-365 -16 c0 -8 -4 -12 -10 -9 -5 3 -10 10 -10 16 0 5 5 9 10 9 6 0 10 -7 10
-16z m-116 -30 c9 -24 7 -28 -9 -14 -17 14 -20 30 -6 30 5 0 12 -7 15 -16z
m146 1 c0 -8 -4 -15 -10 -15 -5 0 -10 7 -10 15 0 8 5 15 10 15 6 0 10 -7 10
-15z m225 5 c3 -5 -1 -10 -10 -10 -9 0 -13 5 -10 10 3 6 8 10 10 10 2 0 7 -4
10 -10z m-35 -10 c0 -5 -4 -10 -10 -10 -5 0 -10 5 -10 10 0 6 5 10 10 10 6 0
10 -4 10 -10z m127 -12 c-3 -8 -6 -5 -6 6 -1 11 2 17 5 13 3 -3 4 -12 1 -19z
m80 -45 c-3 -3 -13 1 -21 10 -8 8 -12 17 -9 20 3 3 12 -1 20 -9 9 -8 13 -18
10 -21z m-474 20 c-7 -2 -19 -2 -25 0 -7 3 -2 5 12 5 14 0 19 -2 13 -5z m79
-18 c9 2 19 -4 22 -12 4 -9 2 -11 -6 -7 -7 5 -9 0 -6 -13 6 -24 -8 -53 -26
-53 -9 0 -15 16 -18 46 -3 45 1 62 11 46 3 -5 14 -8 23 -7z m62 0 c-7 -16 -24
-21 -24 -6 0 8 7 13 27 20 1 1 0 -6 -3 -14z m246 5 c0 -5 -4 -10 -10 -10 -5 0
-10 5 -10 10 0 6 5 10 10 10 6 0 10 -4 10 -10z m-368 -42 c-9 -9 -12 -7 -12
12 0 19 3 21 12 12 9 -9 9 -15 0 -24z m303 1 c-4 -5 11 -9 32 -9 36 1 37 2 19
15 -17 13 -18 15 -3 15 9 0 17 -4 17 -8 0 -5 10 -13 23 -19 18 -8 11 -10 -39
-12 -45 -1 -63 3 -67 13 -3 8 -3 17 0 20 9 8 24 -4 18 -15z m-38 -46 c-4 -17
-4 -17 -12 0 -4 9 -4 25 0 35 8 16 8 16 12 0 3 -10 3 -26 0 -35z m357 21 c9
-8 16 -22 16 -30 0 -8 5 -12 10 -9 6 3 10 -1 10 -9 0 -8 -8 -19 -17 -24 -21
-12 -42 6 -35 30 3 14 -2 18 -22 18 -24 0 -35 18 -19 33 11 12 41 7 57 -9z
m-609 -4 c-3 -5 -14 -10 -23 -10 -15 0 -15 2 -2 10 20 13 33 13 25 0z m215
-11 c0 -5 -7 -9 -15 -9 -15 0 -20 12 -9 23 8 8 24 -1 24 -14z m-466 -3 c-6
-16 -29 -18 -84 -8 l-35 6 45 6 c75 11 80 11 74 -4z m133 -8 c-3 -8 -6 -5 -6
6 -1 11 2 17 5 13 3 -3 4 -12 1 -19z m419 10 c4 -6 2 -14 -4 -16 -17 -5 -15
-22 3 -22 8 0 15 -2 15 -4 0 -2 3 -13 7 -23 6 -16 5 -16 -10 -5 -9 8 -21 11
-27 7 -7 -4 -10 7 -8 34 3 41 11 51 24 29z m69 2 c-3 -5 -12 -10 -20 -10 -8 0
-17 5 -20 10 -4 6 5 10 20 10 15 0 24 -4 20 -10z m45 -27 c0 -7 -4 -13 -10
-13 -5 0 -10 12 -10 28 0 21 2 24 10 12 5 -8 10 -21 10 -27z m30 27 c0 -5 -4
-10 -10 -10 -5 0 -10 5 -10 10 0 6 5 10 10 10 6 0 10 -4 10 -10z m67 -12 c-3
-8 -6 -5 -6 6 -1 11 2 17 5 13 3 -3 4 -12 1 -19z m312 1 c3 -12 1 -12 -14 1
-17 14 -18 13 -12 -2 3 -9 1 -19 -6 -21 -7 -2 -8 -8 -4 -13 4 -5 12 -2 16 5 7
10 13 11 30 1 18 -9 20 -14 11 -26 -7 -7 -17 -11 -23 -7 -6 4 -7 1 -2 -7 13
-20 13 -69 1 -67 -6 1 -12 -8 -14 -20 -2 -13 -8 -23 -13 -23 -16 0 -20 24 -10
51 5 13 10 18 10 12 2 -25 21 -13 21 12 0 25 -1 25 -25 9 -24 -16 -25 -16 -19
2 4 11 10 24 15 29 4 6 1 15 -6 22 -11 10 -14 10 -18 0 -2 -7 -4 0 -3 15 0 14
3 25 5 23 2 -2 10 3 18 11 17 17 35 14 42 -7z m29 -3 c-7 -8 -15 -12 -17 -11
-5 6 10 25 20 25 5 0 4 -6 -3 -14z m-1068 -6 c0 -5 -4 -10 -10 -10 -5 0 -10 5
-10 10 0 6 5 10 10 10 6 0 10 -4 10 -10z m1123 -5 c4 -8 1 -17 -5 -21 -7 -4
-8 -3 -4 4 4 7 2 12 -3 12 -6 0 -11 5 -11 10 0 15 17 12 23 -5z m-903 -16 c22
-12 40 -23 40 -25 0 -6 -74 26 -84 37 -16 15 0 11 44 -12z m52 9 c-7 -7 -16
-7 -28 0 -14 8 -13 10 10 10 18 0 24 -4 18 -10z m200 -40 c-6 -6 -12 -6 -16 1
-4 6 -2 11 3 11 6 0 12 8 12 18 1 15 2 15 6 -2 3 -10 0 -23 -5 -28z m208 12
c0 -6 4 -10 10 -10 5 0 7 7 4 15 -4 8 -1 15 5 15 6 0 11 -6 11 -14 0 -8 6 -17
13 -19 9 -4 8 -8 -3 -16 -13 -10 -13 -12 0 -21 11 -7 7 -10 -17 -10 -23 0 -33
5 -33 15 0 8 -4 15 -9 15 -5 0 -11 13 -13 29 -4 26 -2 29 14 20 10 -5 18 -14
18 -19z m-536 12 c9 -14 -9 -65 -27 -76 -25 -16 -49 10 -25 28 10 7 15 16 12
19 -4 3 -4 13 -1 22 7 16 32 21 41 7z m436 -4 c0 7 5 10 10 7 16 -10 12 -25
-7 -26 -14 0 -12 -3 5 -10 13 -5 20 -14 17 -19 -4 -6 -2 -17 4 -24 9 -10 8
-15 -4 -20 -9 -3 -13 -2 -10 4 4 6 -12 10 -39 10 -25 0 -46 -5 -48 -12 -3 -7
-7 -6 -11 5 -3 9 -2 17 2 17 5 0 7 8 4 19 -3 10 1 22 8 27 9 5 11 2 6 -9 -5
-14 1 -17 36 -17 29 0 38 3 28 9 -8 5 -16 20 -18 33 -2 18 -1 20 7 8 7 -11 10
-11 10 -2z m-645 -18 c-10 -11 -26 -22 -36 -25 -11 -4 -19 -13 -19 -22 0 -13
3 -13 15 -3 12 10 15 9 15 -8 0 -11 -6 -23 -12 -25 -26 -11 17 -26 55 -20 29
4 37 2 37 -10 0 -9 -13 -18 -32 -22 -18 -4 -42 -9 -53 -12 -18 -5 -18 -4 -6
11 13 15 13 19 0 27 -9 6 -18 3 -26 -8 -12 -15 -13 -15 -13 -1 0 9 -3 25 -6
35 -4 13 -3 15 4 4 7 -10 11 -10 17 -1 4 6 2 17 -4 23 -18 18 -14 58 7 55 9
-2 16 3 15 10 -2 7 9 12 29 12 30 0 31 0 13 -20z m45 2 c0 -10 5 -23 11 -29
13 -13 8 -55 -8 -60 -7 -3 -10 3 -6 15 2 10 -3 26 -12 35 -10 11 -14 25 -10
37 8 25 25 26 25 2z m460 2 c0 -2 -9 -4 -21 -4 -11 0 -18 4 -14 10 5 8 35 3
35 -6z m540 -13 c0 -5 -6 -14 -14 -20 -10 -9 -15 -8 -19 3 -3 8 -3 17 0 20 9
9 33 7 33 -3z m-1180 -21 c0 -5 -2 -10 -4 -10 -3 0 -8 5 -11 10 -3 6 -1 10 4
10 6 0 11 -4 11 -10z m250 -33 l0 -31 -21 21 c-18 18 -20 23 -8 36 19 20 29
12 29 -26z m360 28 c0 -8 -4 -15 -10 -15 -5 0 -10 7 -10 15 0 8 5 15 10 15 6
0 10 -7 10 -15z m-75 -5 c3 -5 1 -10 -4 -10 -6 0 -11 5 -11 10 0 6 2 10 4 10
3 0 8 -4 11 -10z m315 -5 c0 -8 -2 -15 -4 -15 -2 0 -6 7 -10 15 -3 8 -1 15 4
15 6 0 10 -7 10 -15z m-690 -21 c0 -8 -5 -12 -10 -9 -6 4 -8 11 -5 16 9 14 15
11 15 -7z m258 -2 c3 -9 -2 -13 -14 -10 -9 1 -19 9 -22 16 -3 9 2 13 14 10 9
-1 19 -9 22 -16z m499 -8 c-3 -3 -12 -4 -19 -1 -8 3 -5 6 6 6 11 1 17 -2 13
-5z m-517 -14 c8 -5 11 -10 5 -10 -5 0 -17 5 -25 10 -8 5 -10 10 -5 10 6 0 17
-5 25 -10z m57 4 c-3 -3 -12 -4 -19 -1 -8 3 -5 6 6 6 11 1 17 -2 13 -5z m108
-4 c-3 -5 -12 -10 -18 -10 -7 0 -6 4 3 10 19 12 23 12 15 0z m-209 -27 c-10
-10 -19 5 -10 18 6 11 8 11 12 0 2 -7 1 -15 -2 -18z m541 -12 c17 -7 37 -10
43 -6 7 4 14 -2 17 -14 4 -16 11 -19 29 -15 18 5 24 2 24 -9 0 -11 8 -15 30
-12 17 2 30 0 30 -5 0 -6 -4 -10 -9 -10 -15 0 -22 -32 -10 -46 9 -11 15 -11
25 -3 17 14 18 5 2 -21 -10 -15 -10 -22 0 -32 6 -6 12 -20 12 -30 0 -17 13
-18 173 -19 94 -1 175 -1 180 0 11 2 9 -16 -12 -104 -11 -44 -22 -107 -25
-140 -6 -61 -17 -114 -32 -149 -5 -13 -4 -17 3 -13 6 4 14 -4 17 -18 6 -25 8
-25 114 -27 59 -1 115 -2 124 -2 12 1 15 -3 8 -11 -12 -15 -7 -44 11 -56 10
-8 8 -9 -9 -4 -32 9 -72 -2 -72 -21 0 -13 -87 -15 -799 -12 -440 2 -797 0
-795 -4 3 -4 -2 -5 -9 -2 -8 3 -17 14 -20 25 -4 16 -2 17 14 8 13 -6 19 -6 19
1 0 5 -7 10 -15 10 -8 0 -15 6 -15 13 0 7 -7 4 -15 -7 -14 -19 -15 -17 -14 20
0 21 3 33 6 27 2 -7 9 -13 15 -13 6 0 8 7 4 15 -4 13 10 15 94 15 93 0 100 1
100 20 0 27 18 25 22 -3 l3 -22 230 0 c505 1 675 6 675 18 0 8 16 11 50 9 37
-3 50 0 50 10 0 10 3 9 10 -2 9 -13 13 -12 26 5 16 20 15 36 -2 163 -11 74
-24 45 -24 -52 l0 -94 -50 -4 c-29 -2 -50 1 -51 7 0 6 -3 4 -6 -4 -5 -11 -7
-11 -15 0 -6 10 -8 7 -6 -11 3 -27 -25 -41 -45 -21 -7 7 -3 8 11 4 17 -4 21
-1 19 16 -1 16 -8 21 -27 21 -34 0 -50 17 -50 54 l0 29 -20 -23 c-13 -15 -20
-18 -20 -9 0 12 -2 12 -9 0 -5 -7 -13 -11 -19 -7 -5 3 -15 -1 -22 -9 -16 -20
-150 -22 -150 -2 0 8 -4 7 -10 -3 -7 -11 -10 -3 -11 30 -1 29 -3 38 -7 25 -9
-25 -43 -26 -66 -2 -13 12 -19 37 -21 82 -3 65 -3 65 31 81 42 20 64 44 40 44
-9 0 -16 8 -16 20 0 25 -7 25 -48 0 -18 -11 -39 -20 -47 -20 -12 0 -15 -18
-15 -97 0 -97 0 -98 -18 -71 -48 74 -117 165 -134 176 -13 9 -16 18 -10 25 6
7 11 20 13 29 3 15 6 14 15 -6 8 -17 8 -23 0 -22 -6 0 -12 -3 -13 -9 -1 -5 10
-9 24 -8 14 1 38 -4 54 -13 27 -14 31 -13 79 22 27 20 52 46 55 57 8 31 1 137
-8 137 -4 0 -5 12 -3 26 4 20 2 24 -10 20 -9 -3 -12 -2 -9 5 4 6 13 8 20 5 7
-2 21 4 31 15 9 10 25 19 34 19 9 0 22 10 27 23 9 19 12 14 18 -36 4 -32 4
-80 0 -105 -13 -82 -12 -87 14 -90 30 -5 47 18 26 34 -14 10 -14 12 -1 17 20
8 36 70 36 138 0 55 1 56 25 51 16 -3 25 0 25 9 0 9 3 9 13 -3 6 -8 26 -21 44
-27z m-303 13 c4 -9 4 -19 1 -22 -3 -3 -5 0 -5 7 0 8 -7 11 -15 7 -15 -5 -20
5 -8 17 11 11 21 8 27 -9z m-284 -14 c0 -5 -4 -10 -10 -10 -5 0 -10 5 -10 10
0 6 5 10 10 10 6 0 10 -4 10 -10z m-58 -62 c-5 -21 -6 -21 -12 -2 -8 21 -3 37
10 29 4 -3 6 -15 2 -27z m75 10 c-3 -8 -6 -5 -6 6 -1 11 2 17 5 13 3 -3 4 -12
1 -19z m224 12 c5 0 9 -7 9 -16 0 -10 -6 -14 -15 -10 -8 3 -19 -3 -25 -13 -9
-18 -50 -36 -50 -23 0 4 -11 8 -25 8 -14 1 -23 -1 -21 -5 3 -4 1 -13 -4 -21
-8 -13 -11 -13 -22 -1 -11 12 -10 13 2 6 10 -6 8 -1 -4 13 -15 17 -16 23 -5
27 82 30 126 43 137 39 8 -2 18 -4 23 -4z m814 1 c-3 -5 7 -12 22 -14 26 -4
26 -4 -4 -6 -31 -1 -41 7 -26 22 9 10 15 8 8 -2z m-1045 -69 c0 -7 -4 -10 -10
-7 -5 3 -10 16 -10 28 0 18 2 19 10 7 5 -8 10 -21 10 -28z m34 -5 c7 -6 6 -7
-4 -4 -8 2 -16 14 -17 28 -1 19 -1 20 4 4 3 -11 10 -24 17 -28z m1053 19 c-4
-9 3 -16 16 -20 28 -7 13 -20 -26 -23 -47 -3 -67 6 -67 28 0 16 3 18 19 9 21
-10 51 -4 51 11 0 5 3 9 6 9 3 0 4 -6 1 -14z m-97 -6 c0 -5 -4 -10 -10 -10 -5
0 -10 5 -10 10 0 6 5 10 10 10 6 0 10 -4 10 -10z m-958 -52 c-7 -7 -12 -8 -12
-2 0 14 12 26 19 19 2 -3 -1 -11 -7 -17z m-14 -31 c15 6 15 5 -1 -11 -24 -25
-41 -8 -30 30 l8 29 3 -27 c2 -21 7 -25 20 -21z m142 28 c-7 -9 -15 -13 -19
-10 -3 3 1 10 9 15 21 14 24 12 10 -5z m56 3 c4 -7 4 -10 -1 -6 -4 4 -14 3
-22 -4 -11 -8 -12 -7 -7 6 7 19 20 21 30 4z m-138 -45 c2 -17 -3 -37 -11 -44
-7 -8 -12 -21 -9 -29 2 -9 -2 -7 -12 5 -20 25 -20 35 -1 35 12 0 13 4 6 18 -7
13 -6 23 2 32 9 10 9 11 -2 5 -10 -6 -12 -4 -7 4 13 20 31 6 34 -26z m974 15
c-7 -7 -16 -7 -28 0 -14 8 -13 10 10 10 18 0 24 -4 18 -10z m90 3 c-8 -4 -13
-12 -12 -17 1 -5 -3 -10 -9 -12 -6 -2 -11 0 -11 5 0 12 22 33 35 33 5 0 4 -4
-3 -9z m-902 -20 c0 -21 -22 -33 -45 -25 -22 9 -18 23 8 34 33 13 37 12 37 -9z
m-520 -1 c0 -5 -2 -10 -4 -10 -3 0 -8 5 -11 10 -3 6 -1 10 4 10 6 0 11 -4 11
-10z m48 -18 c2 -12 -1 -22 -7 -22 -6 0 -11 -6 -11 -13 0 -7 -13 -14 -30 -15
-21 -2 -30 2 -30 12 0 9 -7 13 -20 11 -11 -2 -20 0 -20 6 0 5 7 9 15 9 8 0 15
6 15 13 0 9 2 9 8 -1 11 -16 42 -5 42 15 0 23 35 10 38 -15z m76 12 c3 -8 2
-12 -4 -9 -6 3 -10 10 -10 16 0 14 7 11 14 -7z m-20 -20 c11 -28 6 -38 -7 -19
-8 10 -19 15 -25 11 -7 -4 -12 -3 -12 3 0 8 15 18 31 20 4 1 10 -6 13 -15z
m161 -12 c-3 -3 -11 0 -18 7 -9 10 -8 11 6 5 10 -3 15 -9 12 -12z m-295 -37
c14 -8 19 -14 10 -14 -8 0 -24 6 -34 14 -25 19 -9 19 24 0z m1473 -5 c-3 -11
-9 -20 -14 -20 -14 0 -11 28 4 33 6 3 13 6 14 6 0 1 -1 -8 -4 -19z m-1313 0
c0 -5 -5 -10 -11 -10 -5 0 -7 5 -4 10 3 6 8 10 11 10 2 0 4 -4 4 -10z m-40
-20 c0 -5 -4 -10 -10 -10 -5 0 -10 5 -10 10 0 6 5 10 10 10 6 0 10 -4 10 -10z
m-135 -20 c-3 -5 -10 -10 -16 -10 -5 0 -9 5 -9 10 0 6 7 10 16 10 8 0 12 -4 9
-10z m235 -19 c0 -5 -4 -11 -10 -13 -6 -2 -3 -21 6 -47 14 -43 11 -81 -7 -81
-5 0 -9 7 -9 16 0 9 -5 12 -11 8 -8 -5 -10 1 -7 20 4 20 1 26 -13 26 -21 0
-24 16 -9 40 6 10 10 11 10 3 0 -7 7 -13 16 -13 8 0 13 4 10 9 -8 12 3 41 15
41 5 0 9 -4 9 -9z m1237 -43 c-3 -7 -5 -2 -5 12 0 14 2 19 5 13 2 -7 2 -19 0
-25z m-1150 -25 c-3 -3 -10 -2 -16 2 -7 4 -7 10 2 20 10 11 13 11 15 -2 2 -8
1 -17 -1 -20z m0 -19 c-3 -3 -12 -4 -19 -1 -8 3 -5 6 6 6 11 1 17 -2 13 -5z
m37 -59 c3 -8 1 -15 -4 -15 -6 0 -10 7 -10 15 0 8 2 15 4 15 2 0 6 -7 10 -15z
m-151 -32 c-7 -2 -19 -2 -25 0 -7 3 -2 5 12 5 14 0 19 -2 13 -5z m54 1 c-3 -3
-12 -4 -19 -1 -8 3 -5 6 6 6 11 1 17 -2 13 -5z m-120 -76 c-2 -13 -4 -5 -4 17
-1 22 1 32 4 23 2 -10 2 -28 0 -40z m759 -17 c-3 -5 -45 -6 -92 -3 -66 4 -88
2 -94 -9 -5 -7 -12 -10 -17 -6 -16 17 26 27 115 27 52 0 91 -4 88 -9z m314 -1
c0 -5 -4 -10 -10 -10 -5 0 -10 5 -10 10 0 6 5 10 10 10 6 0 10 -4 10 -10z
m-223 -17 c3 -7 -3 -9 -16 -6 -12 3 -21 10 -21 15 0 13 32 6 37 -9z m-339 -22
c3 -8 -1 -12 -9 -9 -7 2 -15 10 -17 17 -3 8 1 12 9 9 7 -2 15 -10 17 -17z
m180 12 c-15 -2 -42 -2 -60 0 -18 2 -6 4 27 4 33 0 48 -2 33 -4z m82 -13 c0
-5 -9 -10 -21 -10 -11 0 -17 5 -14 10 3 6 13 10 21 10 8 0 14 -4 14 -10z
m-147 -7 c-7 -2 -19 -2 -25 0 -7 3 -2 5 12 5 14 0 19 -2 13 -5z m-883 -58 c0
-8 -4 -15 -10 -15 -5 0 -10 7 -10 15 0 8 5 15 10 15 6 0 10 -7 10 -15z m1721
-68 c-13 -13 -26 -3 -16 12 3 6 11 8 17 5 6 -4 6 -10 -1 -17z m-1551 -27 c0
-5 -10 -10 -22 -9 -22 0 -22 1 -3 9 11 5 21 9 23 9 1 1 2 -3 2 -9z m140 6 c0
-9 -50 -12 -62 -5 -8 6 1 9 25 9 20 0 37 -2 37 -4z"/>
<path d="M1699 1313 c-1 -5 -1 -12 0 -17 1 -5 -4 -13 -11 -17 -9 -6 -7 -9 7
-9 14 0 20 7 21 25 2 22 -14 37 -17 18z"/>
<path d="M1499 703 c-11 -13 -11 -17 -1 -20 6 -3 12 -11 12 -19 0 -8 5 -14 10
-14 6 0 10 16 10 35 0 38 -10 44 -31 18z"/>
<path d="M1991 634 c0 -11 3 -14 6 -6 3 7 2 16 -1 19 -3 4 -6 -2 -5 -13z"/>
<path d="M2091 634 c0 -11 3 -14 6 -6 3 7 2 16 -1 19 -3 4 -6 -2 -5 -13z"/>
<path d="M2111 634 c0 -11 3 -14 6 -6 3 7 2 16 -1 19 -3 4 -6 -2 -5 -13z"/>
<path d="M1333 602 c-10 -6 -9 -13 3 -31 19 -27 40 -14 29 18 -7 23 -13 25
-32 13z"/>
<path d="M1347 533 c-11 -10 -8 -25 3 -18 6 3 7 -1 4 -9 -3 -9 -1 -16 5 -16 6
0 11 11 11 25 0 24 -10 32 -23 18z"/>
<path d="M1636 524 c-4 -9 -13 -14 -21 -10 -17 6 -20 -9 -4 -20 6 -3 9 -15 6
-25 -3 -11 -1 -19 4 -19 5 0 9 14 9 30 0 17 5 30 10 30 6 0 10 -13 10 -30 0
-16 5 -30 11 -30 5 0 8 4 4 10 -3 5 7 8 22 7 24 -2 28 2 28 23 0 21 -5 26 -33
28 -18 2 -30 8 -27 13 4 5 2 9 -3 9 -6 0 -13 -7 -16 -16z m54 -24 c0 -5 -4
-10 -9 -10 -6 0 -13 5 -16 10 -3 6 1 10 9 10 9 0 16 -4 16 -10z"/>
<path d="M1778 522 c-25 -3 -28 -8 -28 -38 0 -34 1 -35 32 -32 27 3 33 8 39
35 7 35 0 41 -43 35z"/>
<path d="M2185 290 c-3 -5 3 -10 15 -10 12 0 18 5 15 10 -3 6 -10 10 -15 10
-5 0 -12 -4 -15 -10z"/>
<path d="M1330 900 c-13 -8 -12 -10 3 -10 9 0 17 5 17 10 0 12 -1 12 -20 0z"/>
<path d="M1285 880 c-3 -6 1 -7 9 -4 18 7 21 14 7 14 -6 0 -13 -4 -16 -10z"/>
</g>
</svg>
