<svg width="1100" height="477" viewBox="0 0 1100 477" fill="none" xmlns="http://www.w3.org/2000/svg">
<rect x="59.5" y="0.5" width="282" height="79" rx="39.5" stroke="white"/>
<path d="M506.037 162.154C505.01 162.154 504.086 161.978 503.265 161.626C502.443 161.259 501.798 160.746 501.329 160.086C500.859 159.426 500.625 158.656 500.625 157.776H503.309C503.367 158.436 503.624 158.979 504.079 159.404C504.548 159.829 505.201 160.042 506.037 160.042C506.902 160.042 507.577 159.837 508.061 159.426C508.545 159.001 508.787 158.458 508.787 157.798C508.787 157.285 508.633 156.867 508.325 156.544C508.031 156.221 507.657 155.972 507.203 155.796C506.763 155.62 506.147 155.429 505.355 155.224C504.357 154.96 503.543 154.696 502.913 154.432C502.297 154.153 501.769 153.728 501.329 153.156C500.889 152.584 500.669 151.821 500.669 150.868C500.669 149.988 500.889 149.218 501.329 148.558C501.769 147.898 502.385 147.392 503.177 147.04C503.969 146.688 504.885 146.512 505.927 146.512C507.408 146.512 508.618 146.886 509.557 147.634C510.51 148.367 511.038 149.379 511.141 150.67H508.369C508.325 150.113 508.061 149.636 507.577 149.24C507.093 148.844 506.455 148.646 505.663 148.646C504.944 148.646 504.357 148.829 503.903 149.196C503.448 149.563 503.221 150.091 503.221 150.78C503.221 151.249 503.36 151.638 503.639 151.946C503.932 152.239 504.299 152.474 504.739 152.65C505.179 152.826 505.78 153.017 506.543 153.222C507.555 153.501 508.376 153.779 509.007 154.058C509.652 154.337 510.195 154.769 510.635 155.356C511.089 155.928 511.317 156.698 511.317 157.666C511.317 158.443 511.104 159.177 510.679 159.866C510.268 160.555 509.659 161.113 508.853 161.538C508.061 161.949 507.122 162.154 506.037 162.154ZM517.202 151.924V158.634C517.202 159.089 517.305 159.419 517.51 159.624C517.73 159.815 518.097 159.91 518.61 159.91H520.15V162H518.17C517.041 162 516.175 161.736 515.574 161.208C514.973 160.68 514.672 159.822 514.672 158.634V151.924H513.242V149.878H514.672V146.864H517.202V149.878H520.15V151.924H517.202ZM521.626 155.884C521.626 154.667 521.875 153.589 522.374 152.65C522.887 151.711 523.576 150.985 524.442 150.472C525.322 149.944 526.29 149.68 527.346 149.68C528.299 149.68 529.128 149.871 529.832 150.252C530.55 150.619 531.122 151.081 531.548 151.638V149.878H534.078V162H531.548V160.196C531.122 160.768 530.543 161.245 529.81 161.626C529.076 162.007 528.24 162.198 527.302 162.198C526.26 162.198 525.307 161.934 524.442 161.406C523.576 160.863 522.887 160.115 522.374 159.162C521.875 158.194 521.626 157.101 521.626 155.884ZM531.548 155.928C531.548 155.092 531.372 154.366 531.02 153.75C530.682 153.134 530.235 152.665 529.678 152.342C529.12 152.019 528.519 151.858 527.874 151.858C527.228 151.858 526.627 152.019 526.07 152.342C525.512 152.65 525.058 153.112 524.706 153.728C524.368 154.329 524.2 155.048 524.2 155.884C524.2 156.72 524.368 157.453 524.706 158.084C525.058 158.715 525.512 159.199 526.07 159.536C526.642 159.859 527.243 160.02 527.874 160.02C528.519 160.02 529.12 159.859 529.678 159.536C530.235 159.213 530.682 158.744 531.02 158.128C531.372 157.497 531.548 156.764 531.548 155.928ZM539.88 151.638C540.246 151.022 540.73 150.545 541.332 150.208C541.948 149.856 542.674 149.68 543.51 149.68V152.276H542.872C541.889 152.276 541.141 152.525 540.628 153.024C540.129 153.523 539.88 154.388 539.88 155.62V162H537.372V149.878H539.88V151.638ZM548.741 151.924V158.634C548.741 159.089 548.844 159.419 549.049 159.624C549.269 159.815 549.636 159.91 550.149 159.91H551.689V162H549.709C548.58 162 547.714 161.736 547.113 161.208C546.512 160.68 546.211 159.822 546.211 158.634V151.924H544.781V149.878H546.211V146.864H548.741V149.878H551.689V151.924H548.741ZM558.879 155.884C558.879 154.667 559.129 153.589 559.627 152.65C560.141 151.711 560.83 150.985 561.695 150.472C562.575 149.944 563.543 149.68 564.599 149.68C565.553 149.68 566.381 149.871 567.085 150.252C567.804 150.619 568.376 151.081 568.801 151.638V149.878H571.331V162H568.801V160.196C568.376 160.768 567.797 161.245 567.063 161.626C566.33 162.007 565.494 162.198 564.555 162.198C563.514 162.198 562.561 161.934 561.695 161.406C560.83 160.863 560.141 160.115 559.627 159.162C559.129 158.194 558.879 157.101 558.879 155.884ZM568.801 155.928C568.801 155.092 568.625 154.366 568.273 153.75C567.936 153.134 567.489 152.665 566.931 152.342C566.374 152.019 565.773 151.858 565.127 151.858C564.482 151.858 563.881 152.019 563.323 152.342C562.766 152.65 562.311 153.112 561.959 153.728C561.622 154.329 561.453 155.048 561.453 155.884C561.453 156.72 561.622 157.453 561.959 158.084C562.311 158.715 562.766 159.199 563.323 159.536C563.895 159.859 564.497 160.02 565.127 160.02C565.773 160.02 566.374 159.859 566.931 159.536C567.489 159.213 567.936 158.744 568.273 158.128C568.625 157.497 568.801 156.764 568.801 155.928ZM579.504 155.928C579.504 154.681 579.754 153.589 580.252 152.65C580.766 151.697 581.47 150.963 582.364 150.45C583.259 149.937 584.286 149.68 585.444 149.68C586.911 149.68 588.121 150.032 589.074 150.736C590.042 151.425 590.695 152.415 591.032 153.706H588.326C588.106 153.105 587.754 152.635 587.27 152.298C586.786 151.961 586.178 151.792 585.444 151.792C584.418 151.792 583.596 152.159 582.98 152.892C582.379 153.611 582.078 154.623 582.078 155.928C582.078 157.233 582.379 158.253 582.98 158.986C583.596 159.719 584.418 160.086 585.444 160.086C586.896 160.086 587.857 159.448 588.326 158.172H591.032C590.68 159.404 590.02 160.387 589.052 161.12C588.084 161.839 586.882 162.198 585.444 162.198C584.286 162.198 583.259 161.941 582.364 161.428C581.47 160.9 580.766 160.167 580.252 159.228C579.754 158.275 579.504 157.175 579.504 155.928ZM596.04 145.72V162H593.532V145.72H596.04ZM598.497 155.884C598.497 154.667 598.746 153.589 599.245 152.65C599.758 151.711 600.447 150.985 601.313 150.472C602.193 149.944 603.161 149.68 604.217 149.68C605.17 149.68 605.999 149.871 606.703 150.252C607.421 150.619 607.993 151.081 608.419 151.638V149.878H610.949V162H608.419V160.196C607.993 160.768 607.414 161.245 606.681 161.626C605.947 162.007 605.111 162.198 604.173 162.198C603.131 162.198 602.178 161.934 601.313 161.406C600.447 160.863 599.758 160.115 599.245 159.162C598.746 158.194 598.497 157.101 598.497 155.884ZM608.419 155.928C608.419 155.092 608.243 154.366 607.891 153.75C607.553 153.134 607.106 152.665 606.549 152.342C605.991 152.019 605.39 151.858 604.745 151.858C604.099 151.858 603.498 152.019 602.941 152.342C602.383 152.65 601.929 153.112 601.577 153.728C601.239 154.329 601.071 155.048 601.071 155.884C601.071 156.72 601.239 157.453 601.577 158.084C601.929 158.715 602.383 159.199 602.941 159.536C603.513 159.859 604.114 160.02 604.745 160.02C605.39 160.02 605.991 159.859 606.549 159.536C607.106 159.213 607.553 158.744 607.891 158.128C608.243 157.497 608.419 156.764 608.419 155.928ZM618.643 162.198C617.689 162.198 616.831 162.029 616.069 161.692C615.321 161.34 614.727 160.871 614.287 160.284C613.847 159.683 613.612 159.015 613.583 158.282H616.179C616.223 158.795 616.465 159.228 616.905 159.58C617.359 159.917 617.924 160.086 618.599 160.086C619.303 160.086 619.845 159.954 620.227 159.69C620.623 159.411 620.821 159.059 620.821 158.634C620.821 158.179 620.601 157.842 620.161 157.622C619.735 157.402 619.053 157.16 618.115 156.896C617.205 156.647 616.465 156.405 615.893 156.17C615.321 155.935 614.822 155.576 614.397 155.092C613.986 154.608 613.781 153.97 613.781 153.178C613.781 152.533 613.971 151.946 614.353 151.418C614.734 150.875 615.277 150.45 615.981 150.142C616.699 149.834 617.521 149.68 618.445 149.68C619.823 149.68 620.931 150.032 621.767 150.736C622.617 151.425 623.072 152.371 623.131 153.574H620.623C620.579 153.031 620.359 152.599 619.963 152.276C619.567 151.953 619.031 151.792 618.357 151.792C617.697 151.792 617.191 151.917 616.839 152.166C616.487 152.415 616.311 152.745 616.311 153.156C616.311 153.479 616.428 153.75 616.663 153.97C616.897 154.19 617.183 154.366 617.521 154.498C617.858 154.615 618.357 154.769 619.017 154.96C619.897 155.195 620.615 155.437 621.173 155.686C621.745 155.921 622.236 156.273 622.647 156.742C623.057 157.211 623.27 157.835 623.285 158.612C623.285 159.301 623.094 159.917 622.713 160.46C622.331 161.003 621.789 161.428 621.085 161.736C620.395 162.044 619.581 162.198 618.643 162.198ZM630.395 162.198C629.441 162.198 628.583 162.029 627.821 161.692C627.073 161.34 626.479 160.871 626.039 160.284C625.599 159.683 625.364 159.015 625.335 158.282H627.931C627.975 158.795 628.217 159.228 628.657 159.58C629.111 159.917 629.676 160.086 630.351 160.086C631.055 160.086 631.597 159.954 631.979 159.69C632.375 159.411 632.573 159.059 632.573 158.634C632.573 158.179 632.353 157.842 631.913 157.622C631.487 157.402 630.805 157.16 629.867 156.896C628.957 156.647 628.217 156.405 627.645 156.17C627.073 155.935 626.574 155.576 626.149 155.092C625.738 154.608 625.533 153.97 625.533 153.178C625.533 152.533 625.723 151.946 626.105 151.418C626.486 150.875 627.029 150.45 627.733 150.142C628.451 149.834 629.273 149.68 630.197 149.68C631.575 149.68 632.683 150.032 633.519 150.736C634.369 151.425 634.824 152.371 634.883 153.574H632.375C632.331 153.031 632.111 152.599 631.715 152.276C631.319 151.953 630.783 151.792 630.109 151.792C629.449 151.792 628.943 151.917 628.591 152.166C628.239 152.415 628.063 152.745 628.063 153.156C628.063 153.479 628.18 153.75 628.415 153.97C628.649 154.19 628.935 154.366 629.273 154.498C629.61 154.615 630.109 154.769 630.769 154.96C631.649 155.195 632.367 155.437 632.925 155.686C633.497 155.921 633.988 156.273 634.399 156.742C634.809 157.211 635.022 157.835 635.037 158.612C635.037 159.301 634.846 159.917 634.465 160.46C634.083 161.003 633.541 161.428 632.837 161.736C632.147 162.044 631.333 162.198 630.395 162.198ZM646.388 151.924V158.634C646.388 159.089 646.49 159.419 646.696 159.624C646.916 159.815 647.282 159.91 647.796 159.91H649.336V162H647.356C646.226 162 645.361 161.736 644.76 161.208C644.158 160.68 643.858 159.822 643.858 158.634V151.924H642.428V149.878H643.858V146.864H646.388V149.878H649.336V151.924H646.388ZM656.905 162.198C655.761 162.198 654.727 161.941 653.803 161.428C652.879 160.9 652.153 160.167 651.625 159.228C651.097 158.275 650.833 157.175 650.833 155.928C650.833 154.696 651.104 153.603 651.647 152.65C652.19 151.697 652.93 150.963 653.869 150.45C654.808 149.937 655.856 149.68 657.015 149.68C658.174 149.68 659.222 149.937 660.161 150.45C661.1 150.963 661.84 151.697 662.383 152.65C662.926 153.603 663.197 154.696 663.197 155.928C663.197 157.16 662.918 158.253 662.361 159.206C661.804 160.159 661.041 160.9 660.073 161.428C659.12 161.941 658.064 162.198 656.905 162.198ZM656.905 160.02C657.55 160.02 658.152 159.866 658.709 159.558C659.281 159.25 659.743 158.788 660.095 158.172C660.447 157.556 660.623 156.808 660.623 155.928C660.623 155.048 660.454 154.307 660.117 153.706C659.78 153.09 659.332 152.628 658.775 152.32C658.218 152.012 657.616 151.858 656.971 151.858C656.326 151.858 655.724 152.012 655.167 152.32C654.624 152.628 654.192 153.09 653.869 153.706C653.546 154.307 653.385 155.048 653.385 155.928C653.385 157.233 653.715 158.245 654.375 158.964C655.05 159.668 655.893 160.02 656.905 160.02ZM664.84 155.884C664.84 154.667 665.09 153.589 665.588 152.65C666.102 151.711 666.791 150.985 667.656 150.472C668.536 149.944 669.512 149.68 670.582 149.68C671.374 149.68 672.152 149.856 672.914 150.208C673.692 150.545 674.308 151 674.762 151.572V145.72H677.292V162H674.762V160.174C674.352 160.761 673.78 161.245 673.046 161.626C672.328 162.007 671.499 162.198 670.56 162.198C669.504 162.198 668.536 161.934 667.656 161.406C666.791 160.863 666.102 160.115 665.588 159.162C665.09 158.194 664.84 157.101 664.84 155.884ZM674.762 155.928C674.762 155.092 674.586 154.366 674.234 153.75C673.897 153.134 673.45 152.665 672.892 152.342C672.335 152.019 671.734 151.858 671.088 151.858C670.443 151.858 669.842 152.019 669.284 152.342C668.727 152.65 668.272 153.112 667.92 153.728C667.583 154.329 667.414 155.048 667.414 155.884C667.414 156.72 667.583 157.453 667.92 158.084C668.272 158.715 668.727 159.199 669.284 159.536C669.856 159.859 670.458 160.02 671.088 160.02C671.734 160.02 672.335 159.859 672.892 159.536C673.45 159.213 673.897 158.744 674.234 158.128C674.586 157.497 674.762 156.764 674.762 155.928ZM679.751 155.884C679.751 154.667 680 153.589 680.499 152.65C681.012 151.711 681.701 150.985 682.567 150.472C683.447 149.944 684.415 149.68 685.471 149.68C686.424 149.68 687.253 149.871 687.957 150.252C688.675 150.619 689.247 151.081 689.673 151.638V149.878H692.203V162H689.673V160.196C689.247 160.768 688.668 161.245 687.935 161.626C687.201 162.007 686.365 162.198 685.427 162.198C684.385 162.198 683.432 161.934 682.567 161.406C681.701 160.863 681.012 160.115 680.499 159.162C680 158.194 679.751 157.101 679.751 155.884ZM689.673 155.928C689.673 155.092 689.497 154.366 689.145 153.75C688.807 153.134 688.36 152.665 687.803 152.342C687.245 152.019 686.644 151.858 685.999 151.858C685.353 151.858 684.752 152.019 684.195 152.342C683.637 152.65 683.183 153.112 682.831 153.728C682.493 154.329 682.325 155.048 682.325 155.884C682.325 156.72 682.493 157.453 682.831 158.084C683.183 158.715 683.637 159.199 684.195 159.536C684.767 159.859 685.368 160.02 685.999 160.02C686.644 160.02 687.245 159.859 687.803 159.536C688.36 159.213 688.807 158.744 689.145 158.128C689.497 157.497 689.673 156.764 689.673 155.928ZM706.409 149.878L698.973 167.698H696.377L698.841 161.802L694.067 149.878H696.861L700.271 159.118L703.813 149.878H706.409Z" fill="white"/>
<g clip-path="url(#clip0_23_459)">
<path d="M20.0104 40H92.9896C95.6181 39.9972 98.2213 40.5732 100.65 41.6949C103.079 42.8166 105.286 44.462 107.145 46.537C109.003 48.612 110.477 51.0758 111.482 53.7874C112.487 56.4991 113.002 59.4053 113 62.3398V140.66C113.002 143.595 112.487 146.501 111.482 149.213C110.477 151.924 109.003 154.388 107.145 156.463C105.286 158.538 103.079 160.183 100.65 161.305C98.2213 162.427 95.6181 163.003 92.9896 163H20.0104C17.3819 163.003 14.7787 162.427 12.3498 161.305C9.92095 160.183 7.71403 158.538 5.8554 156.463C3.99677 154.388 2.52291 151.924 1.51817 149.213C0.513425 146.501 -0.0024685 143.595 8.88027e-06 140.66V62.3398C-0.0024685 59.4053 0.513425 56.4991 1.51817 53.7874C2.52291 51.0758 3.99677 48.612 5.8554 46.537C7.71403 44.462 9.92095 42.8166 12.3498 41.6949C14.7787 40.5732 17.3819 39.9972 20.0104 40Z" fill="#F7DF1E"/>
<path d="M76.0993 136.243C78.3754 140.288 81.3368 143.261 86.5742 143.261C90.974 143.261 93.7847 140.868 93.7847 137.56C93.7847 133.597 90.8969 132.193 86.0541 129.888L83.3994 128.648C75.737 125.094 70.6466 120.643 70.6466 111.233C70.6466 102.564 76.7145 95.965 86.1975 95.965C92.9488 95.965 97.8025 98.5226 101.3 105.219L93.0313 110.998C91.2108 107.445 89.2467 106.045 86.1975 106.045C83.0874 106.045 81.1161 108.193 81.1161 110.998C81.1161 114.466 83.0891 115.869 87.645 118.017L90.2996 119.255C99.3217 123.466 104.416 127.759 104.416 137.412C104.416 147.818 96.9056 153.519 86.8199 153.519C76.9585 153.519 70.5874 148.404 67.47 141.699L76.0993 136.243ZM38.5887 137.244C40.2568 140.466 41.7742 143.189 45.4225 143.189C48.9111 143.189 51.1119 141.703 51.1119 135.926V96.6249H61.7304V136.082C61.7304 148.051 55.284 153.498 45.8745 153.498C37.3726 153.498 32.449 148.709 29.9451 142.94L38.5887 137.244Z" fill="black"/>
</g>
<g clip-path="url(#clip1_23_459)">
<path d="M302.01 194H374.99C377.618 193.997 380.221 194.573 382.65 195.695C385.079 196.817 387.286 198.462 389.145 200.537C391.003 202.612 392.477 205.076 393.482 207.787C394.487 210.499 395.002 213.405 395 216.34V294.66C395.002 297.595 394.487 300.501 393.482 303.213C392.477 305.924 391.003 308.388 389.145 310.463C387.286 312.538 385.079 314.183 382.65 315.305C380.221 316.427 377.618 317.003 374.99 317H302.01C299.382 317.003 296.779 316.427 294.35 315.305C291.921 314.183 289.714 312.538 287.855 310.463C285.997 308.388 284.523 305.924 283.518 303.213C282.513 300.501 281.998 297.595 282 294.66V216.34C281.998 213.405 282.513 210.499 283.518 207.787C284.523 205.076 285.997 202.612 287.855 200.537C289.714 198.462 291.921 196.817 294.35 195.695C296.779 194.573 299.382 193.997 302.01 194Z" fill="#000B1D"/>
<path fill-rule="evenodd" clip-rule="evenodd" d="M360.249 269.099L315.129 298.261L373.55 293.946L378.05 229.825L360.249 269.099Z" fill="url(#paint0_linear_23_459)"/>
<path fill-rule="evenodd" clip-rule="evenodd" d="M373.646 293.902L368.625 256.178L354.948 275.837L373.646 293.902Z" fill="url(#paint1_linear_23_459)"/>
<path fill-rule="evenodd" clip-rule="evenodd" d="M373.714 293.902L336.927 290.759L315.325 298.179L373.714 293.902Z" fill="url(#paint2_linear_23_459)"/>
<path fill-rule="evenodd" clip-rule="evenodd" d="M315.377 298.188L324.567 265.417L304.344 270.124L315.377 298.188Z" fill="url(#paint3_linear_23_459)"/>
<path fill-rule="evenodd" clip-rule="evenodd" d="M354.944 275.946L346.488 239.893L322.289 264.584L354.944 275.946Z" fill="url(#paint4_linear_23_459)"/>
<path fill-rule="evenodd" clip-rule="evenodd" d="M376.132 240.401L353.257 220.065L346.887 242.481L376.132 240.401Z" fill="url(#paint5_linear_23_459)"/>
<path fill-rule="evenodd" clip-rule="evenodd" d="M365.434 212.815L351.98 220.907L343.493 212.706L365.434 212.815Z" fill="url(#paint6_linear_23_459)"/>
<path fill-rule="evenodd" clip-rule="evenodd" d="M299.023 281.117L304.659 269.928L300.1 256.6L299.023 281.117Z" fill="url(#paint7_linear_23_459)"/>
<path fill-rule="evenodd" clip-rule="evenodd" d="M299.797 256.178L304.384 270.341L324.315 265.473L347.07 242.454L353.492 220.252L343.38 212.48L326.189 219.483C320.773 224.967 310.263 235.816 309.884 236.02C309.509 236.229 302.944 249.735 299.797 256.178Z" fill="white"/>
<path fill-rule="evenodd" clip-rule="evenodd" d="M315.903 230.737C327.642 218.068 342.775 210.583 348.582 216.961C354.386 223.339 348.231 238.838 336.492 251.502C324.754 264.167 309.809 272.064 304.005 265.686C298.198 259.313 304.165 243.401 315.903 230.737Z" fill="url(#paint8_linear_23_459)"/>
<path fill-rule="evenodd" clip-rule="evenodd" d="M315.377 298.175L324.495 265.3L354.776 275.889C343.828 287.065 331.65 296.512 315.377 298.175Z" fill="url(#paint9_linear_23_459)"/>
<path fill-rule="evenodd" clip-rule="evenodd" d="M347.11 242.389L354.884 275.907C364.03 265.439 372.239 254.186 376.259 240.266L347.11 242.389Z" fill="url(#paint10_linear_23_459)"/>
<path fill-rule="evenodd" clip-rule="evenodd" d="M376.179 240.436C379.291 230.216 380.008 215.554 365.338 212.832L353.3 220.069L376.179 240.436Z" fill="url(#paint11_linear_23_459)"/>
<path fill-rule="evenodd" clip-rule="evenodd" d="M299.023 280.969C299.454 297.836 310.634 298.088 315.397 298.236L304.396 270.271L299.023 280.969Z" fill="#9E1209"/>
<path fill-rule="evenodd" clip-rule="evenodd" d="M347.154 242.442C354.182 247.144 368.346 256.587 368.633 256.76C369.079 257.034 374.74 246.371 376.024 240.345L347.154 242.442Z" fill="url(#paint12_radial_23_459)"/>
<path fill-rule="evenodd" clip-rule="evenodd" d="M324.483 265.3L336.672 290.898C343.88 286.643 349.523 281.46 354.693 275.907L324.483 265.3Z" fill="url(#paint13_radial_23_459)"/>
<path fill-rule="evenodd" clip-rule="evenodd" d="M304.348 270.306L302.621 292.691C305.88 297.536 310.363 297.958 315.066 297.58C311.663 288.363 304.867 269.933 304.348 270.306Z" fill="url(#paint14_linear_23_459)"/>
<path fill-rule="evenodd" clip-rule="evenodd" d="M353.229 220.126L377.444 223.825C376.151 217.864 372.183 214.017 365.418 212.815L353.229 220.126Z" fill="url(#paint15_linear_23_459)"/>
</g>
<g clip-path="url(#clip2_23_459)">
<path d="M161.01 40H233.99C236.618 39.9972 239.221 40.5732 241.65 41.6949C244.079 42.8166 246.286 44.462 248.145 46.537C250.003 48.612 251.477 51.0758 252.482 53.7874C253.487 56.4991 254.002 59.4053 254 62.3398V140.66C254.002 143.595 253.487 146.501 252.482 149.213C251.477 151.924 250.003 154.388 248.145 156.463C246.286 158.538 244.079 160.183 241.65 161.305C239.221 162.427 236.618 163.003 233.99 163H161.01C158.382 163.003 155.779 162.427 153.35 161.305C150.921 160.183 148.714 158.538 146.855 156.463C144.997 154.388 143.523 151.924 142.518 149.213C141.513 146.501 140.998 143.595 141 140.66V62.3398C140.998 59.4053 141.513 56.4991 142.518 53.7874C143.523 51.0758 144.997 48.612 146.855 46.537C148.714 44.462 150.921 42.8166 153.35 41.6949C155.779 40.5732 158.382 39.9972 161.01 40Z" fill="#F0F0F0"/>
<path d="M228.621 72.3235L222.951 141.468L197.462 149.159L172.044 141.478L166.379 72.3235H228.621Z" fill="#E44D26"/>
<path d="M197.5 143.28L218.096 137.065L222.942 77.9778H197.5V143.28Z" fill="#F16529"/>
<path d="M186.477 94.9412H197.5V86.4596H177.961L178.148 88.735L180.063 112.108H197.5V103.626H187.189L186.477 94.9412ZM188.233 116.349H180.411L181.503 129.666L197.464 134.489L197.5 134.478V125.654L197.466 125.664L188.788 123.113L188.233 116.349Z" fill="#EBEBEB"/>
<path d="M172.17 53.53H176.13V57.7885H179.752V53.53H183.712V66.4257H179.752V62.1075H176.13V66.4257H172.17V53.53H172.17ZM188.919 57.8065H185.434V53.53H196.367V57.8065H192.88V66.4257H188.92V57.8065H188.92H188.919ZM198.103 53.53H202.232L204.771 58.0612L207.309 53.53H211.439V66.4257H207.496V60.0339L204.771 64.619H204.703L201.977 60.0339V66.4257H198.103V53.53ZM213.41 53.53H217.371V62.1632H222.94V66.4257H213.41V53.53H213.41Z" fill="black"/>
<path d="M197.473 112.108H207.068L206.164 123.108L197.473 125.661V134.485L213.447 129.666L213.564 128.233L215.396 105.904L215.586 103.626H197.473V112.108ZM197.473 94.9205V94.9412H216.295L216.451 93.0349L216.806 88.735L216.992 86.4596H197.473V94.9207V94.9205Z" fill="white"/>
</g>
<g clip-path="url(#clip3_23_459)">
<path d="M443.01 40H515.99C518.618 39.9972 521.221 40.5732 523.65 41.6949C526.079 42.8166 528.286 44.462 530.145 46.537C532.003 48.612 533.477 51.0758 534.482 53.7874C535.487 56.4991 536.002 59.4053 536 62.3398V140.66C536.002 143.595 535.487 146.501 534.482 149.213C533.477 151.924 532.003 154.388 530.145 156.463C528.286 158.538 526.079 160.183 523.65 161.305C521.221 162.427 518.618 163.003 515.99 163H443.01C440.382 163.003 437.779 162.427 435.35 161.305C432.921 160.183 430.714 158.538 428.855 156.463C426.997 154.388 425.523 151.924 424.518 149.213C423.513 146.501 422.998 143.595 423 140.66V62.3398C422.998 59.4053 423.513 56.4991 424.518 53.7874C425.523 51.0758 426.997 48.612 428.855 46.537C430.714 44.462 432.921 42.8166 435.35 41.6949C437.779 40.5732 440.382 39.9972 443.01 40Z" fill="#F0F0F0"/>
<path d="M510.621 63.3699L504.951 132.514L479.462 140.206L454.044 132.525L448.379 63.3699H510.621Z" fill="#E44D26"/>
<path d="M479.5 134.326L500.096 128.111L504.942 69.0242H479.5V134.326Z" fill="#F16529"/>
<path d="M468.477 85.9876H479.5V77.506H459.961L460.148 79.7814L462.063 103.154H479.5V94.6728H469.189L468.477 85.9876ZM470.233 107.395H462.411L463.503 120.713L479.464 125.535L479.5 125.525V116.7L479.466 116.71L470.788 114.16L470.233 107.395Z" fill="#EBEBEB"/>
<path d="M479.473 103.154H489.068L488.164 114.154L479.473 116.708V125.531L495.447 120.713L495.564 119.28L497.396 96.9504L497.586 94.6728H479.473V103.154ZM479.473 85.9668V85.9876H498.295L498.451 84.0813L498.806 79.7814L498.992 77.506H479.473V85.9671V85.9668Z" fill="white"/>
</g>
<g clip-path="url(#clip4_23_459)">
<path d="M725.01 40H797.99C800.618 39.9972 803.221 40.5732 805.65 41.6949C808.079 42.8166 810.286 44.462 812.145 46.537C814.003 48.612 815.477 51.0758 816.482 53.7874C817.487 56.4991 818.002 59.4053 818 62.3398V140.66C818.002 143.595 817.487 146.501 816.482 149.213C815.477 151.924 814.003 154.388 812.145 156.463C810.286 158.538 808.079 160.183 805.65 161.305C803.221 162.427 800.618 163.003 797.99 163H725.01C722.382 163.003 719.779 162.427 717.35 161.305C714.921 160.183 712.714 158.538 710.855 156.463C708.997 154.388 707.523 151.924 706.518 149.213C705.513 146.501 704.998 143.595 705 140.66V62.3398C704.998 59.4053 705.513 56.4991 706.518 53.7874C707.523 51.0758 708.997 48.612 710.855 46.537C712.714 44.462 714.921 42.8166 717.35 41.6949C719.779 40.5732 722.382 39.9972 725.01 40Z" fill="#F16529"/>
<path d="M743.985 76.8755H761.537V63.37H730.425L730.722 66.9932L733.772 104.211H761.537V90.7053H745.119L743.985 76.8755ZM746.781 110.964H734.326L736.064 132.169L761.48 139.849L761.537 139.832V125.781L761.483 125.796L747.665 121.735L746.781 110.964Z" fill="#EBEBEB"/>
<path d="M761.495 104.211H776.773L775.332 121.726L761.494 125.792V139.843L786.93 132.169L787.117 129.888L790.033 94.3319L790.335 90.7053H761.495V104.211ZM761.495 76.8425V76.8755H791.464L791.713 73.84L792.279 66.9932L792.575 63.37H761.495V76.8429V76.8425Z" fill="white"/>
</g>
<g clip-path="url(#clip5_23_459)">
<path d="M302.01 40H374.99C377.618 39.9972 380.221 40.5732 382.65 41.6949C385.079 42.8166 387.286 44.462 389.145 46.537C391.003 48.612 392.477 51.0758 393.482 53.7874C394.487 56.4991 395.002 59.4053 395 62.3398V140.66C395.002 143.595 394.487 146.501 393.482 149.213C392.477 151.924 391.003 154.388 389.145 156.463C387.286 158.538 385.079 160.183 382.65 161.305C380.221 162.427 377.618 163.003 374.99 163H302.01C299.382 163.003 296.779 162.427 294.35 161.305C291.921 160.183 289.714 158.538 287.855 156.463C285.997 154.388 284.523 151.924 283.518 149.213C282.513 146.501 281.998 143.595 282 140.66V62.3398C281.998 59.4053 282.513 56.4991 283.518 53.7874C284.523 51.0758 285.997 48.612 287.855 46.537C289.714 44.462 291.921 42.8166 294.35 41.6949C296.779 40.5732 299.382 39.9972 302.01 40Z" fill="#F0F0F0"/>
<path d="M338.507 149.157L313.089 141.476L307.425 72.323H369.665L363.995 141.466L338.507 149.157Z" fill="#264DE4"/>
<path d="M359.141 137.063L363.986 77.9772H338.545V143.278L359.141 137.063Z" fill="#2965F1"/>
<path d="M320.41 103.625L321.109 112.107H338.545V103.625H320.41ZM319.007 86.4589L319.715 94.9402H338.545V86.4589H319.007ZM338.545 125.652L338.511 125.662L329.833 123.112L329.279 116.347H321.457L322.548 129.665L338.509 134.487L338.545 134.477V125.652Z" fill="#EBEBEB"/>
<path d="M322.073 53.53H331.51V57.8258H326.02V62.1216H331.51V66.4171H322.073V53.53ZM333.398 53.53H342.835V57.2655H337.344V58.0125H342.835V66.6041H333.398V62.6814H338.888V61.9344H333.397V53.53H333.398ZM344.722 53.53H354.16V57.2655H348.669V58.0125H354.16V66.6041H344.722V62.6814H350.213V61.9344H344.723V53.53H344.722Z" fill="black"/>
<path d="M356.63 103.625L358.037 86.4589H338.518V94.9402H349.498L348.789 103.625H338.518V112.107H348.113L347.208 123.106L338.518 125.66V134.483L354.492 129.665L354.609 128.232L356.44 105.903L356.63 103.625Z" fill="white"/>
</g>
<g clip-path="url(#clip6_23_459)">
<path d="M584.01 40H656.99C659.618 39.9972 662.221 40.5732 664.65 41.6949C667.079 42.8166 669.286 44.462 671.145 46.537C673.003 48.612 674.477 51.0758 675.482 53.7874C676.487 56.4991 677.002 59.4053 677 62.3398V140.66C677.002 143.595 676.487 146.501 675.482 149.213C674.477 151.924 673.003 154.388 671.145 156.463C669.286 158.538 667.079 160.183 664.65 161.305C662.221 162.427 659.618 163.003 656.99 163H584.01C581.382 163.003 578.779 162.427 576.35 161.305C573.921 160.183 571.714 158.538 569.855 156.463C567.997 154.388 566.523 151.924 565.518 149.213C564.513 146.501 563.998 143.595 564 140.66V62.3398C563.998 59.4053 564.513 56.4991 565.518 53.7874C566.523 51.0758 567.997 48.612 569.855 46.537C571.714 44.462 573.921 42.8166 576.35 41.6949C578.779 40.5732 581.382 39.9972 584.01 40Z" fill="#F0F0F0"/>
<path d="M620.507 140.204L595.089 132.523L589.425 63.3701H651.665L645.995 132.513L620.507 140.204Z" fill="#264DE4"/>
<path d="M641.141 128.11L645.986 69.0243H620.545V134.325L641.141 128.11Z" fill="#2965F1"/>
<path d="M602.41 94.6723L603.109 103.154H620.545V94.6723H602.41ZM601.007 77.5059L601.715 85.9872H620.545V77.5059H601.007ZM620.545 116.699L620.511 116.709L611.833 114.159L611.279 107.394H603.457L604.548 120.711L620.509 125.534L620.545 125.524V116.699Z" fill="#EBEBEB"/>
<path d="M638.63 94.6723L640.037 77.5059H620.518V85.9872H631.498L630.789 94.6723H620.518V103.154H630.113L629.208 114.153L620.518 116.707V125.53L636.492 120.711L636.609 119.279L638.44 96.9498L638.63 94.6723Z" fill="white"/>
</g>
<g clip-path="url(#clip7_23_459)">
<path d="M866.01 40H938.99C941.618 39.9972 944.221 40.5732 946.65 41.6949C949.079 42.8166 951.286 44.462 953.145 46.537C955.003 48.612 956.477 51.0758 957.482 53.7874C958.487 56.4991 959.002 59.4053 959 62.3398V140.66C959.002 143.595 958.487 146.501 957.482 149.213C956.477 151.924 955.003 154.388 953.145 156.463C951.286 158.538 949.079 160.183 946.65 161.305C944.221 162.427 941.618 163.003 938.99 163H866.01C863.382 163.003 860.779 162.427 858.35 161.305C855.921 160.183 853.714 158.538 851.855 156.463C849.997 154.388 848.523 151.924 847.518 149.213C846.513 146.501 845.998 143.595 846 140.66V62.3398C845.998 59.4053 846.513 56.4991 847.518 53.7874C848.523 51.0758 849.997 48.612 851.855 46.537C853.714 44.462 855.921 42.8166 858.35 41.6949C860.779 40.5732 863.382 39.9972 866.01 40Z" fill="#2965F1"/>
<path d="M873.66 90.7053L874.772 104.211H902.537V90.7053H873.66ZM871.425 63.37L872.553 76.8755H902.537V63.37H871.425ZM902.537 125.781L902.483 125.796L888.665 121.735L887.781 110.964H875.326L877.064 132.169L902.48 139.849L902.537 139.832V125.781Z" fill="#EBEBEB"/>
<path d="M931.335 90.7053L933.575 63.37H902.494V76.8755H919.977L918.849 90.7053H902.494V104.211H917.773L916.332 121.726L902.494 125.792V139.843L927.93 132.169L928.117 129.888L931.033 94.3319L931.335 90.7053Z" fill="white"/>
</g>
<g clip-path="url(#clip8_23_459)">
<path d="M1007.01 40H1079.99C1082.62 39.9972 1085.22 40.5732 1087.65 41.6949C1090.08 42.8166 1092.29 44.462 1094.14 46.537C1096 48.612 1097.48 51.0758 1098.48 53.7874C1099.49 56.4991 1100 59.4053 1100 62.3398V140.66C1100 143.595 1099.49 146.501 1098.48 149.213C1097.48 151.924 1096 154.388 1094.14 156.463C1092.29 158.538 1090.08 160.183 1087.65 161.305C1085.22 162.427 1082.62 163.003 1079.99 163H1007.01C1004.38 163.003 1001.78 162.427 999.35 161.305C996.921 160.183 994.714 158.538 992.855 156.463C990.997 154.388 989.523 151.924 988.518 149.213C987.513 146.501 986.998 143.595 987 140.66V62.3398C986.998 59.4053 987.513 56.4991 988.518 53.7874C989.523 51.0758 990.997 48.612 992.855 46.537C994.714 44.462 996.921 42.8166 999.35 41.6949C1001.78 40.5732 1004.38 39.9972 1007.01 40Z" fill="#000B1D"/>
<g clip-path="url(#clip9_23_459)">
<path d="M1074.46 107.095C1071.47 107.113 1068.87 107.905 1066.69 109.076C1065.89 107.337 1065.09 105.786 1064.95 104.65C1064.79 103.323 1064.6 102.514 1064.79 100.929C1064.98 99.3443 1065.82 97.0879 1065.81 96.9156C1065.79 96.7434 1065.62 95.9338 1063.9 95.9166C1062.17 95.8994 1060.68 96.2783 1060.51 96.7778C1060.34 97.2774 1060.01 98.4142 1059.79 99.5855C1059.49 101.308 1056.34 107.457 1054.54 110.678C1053.96 109.421 1053.46 108.318 1053.35 107.44C1053.19 106.114 1053 105.304 1053.19 103.719C1053.38 102.135 1054.22 99.8783 1054.21 99.706C1054.19 99.5338 1054.02 98.7242 1052.29 98.707C1050.57 98.6898 1049.08 99.0687 1048.91 99.5682C1048.74 100.068 1048.55 101.239 1048.19 102.376C1047.83 103.513 1043.64 113.779 1042.54 116.431C1041.98 117.792 1041.49 118.877 1041.15 119.618C1041.15 119.618 1041.13 119.67 1041.09 119.756C1040.79 120.393 1040.62 120.738 1040.62 120.738C1040.62 120.738 1040.62 120.738 1040.62 120.755C1040.38 121.22 1040.13 121.65 1040 121.65C1039.91 121.65 1039.74 120.41 1040.04 118.722C1040.66 115.157 1042.15 109.61 1042.14 109.421C1042.14 109.317 1042.42 108.353 1041.16 107.853C1039.94 107.354 1039.5 108.181 1039.39 108.181C1039.28 108.181 1039.2 108.473 1039.2 108.473C1039.2 108.473 1040.57 102.238 1036.6 102.238C1034.13 102.238 1030.71 105.218 1029.01 107.905C1027.95 108.542 1025.67 109.903 1023.25 111.367C1022.32 111.936 1021.36 112.504 1020.47 113.038C1020.41 112.969 1020.34 112.883 1020.28 112.814C1015.48 107.182 1006.61 103.203 1006.99 95.641C1007.13 92.885 1007.99 85.6506 1024.03 76.866C1037.23 69.7177 1047.73 71.6985 1049.55 76.0909C1052.15 82.3607 1043.92 94.0046 1030.28 95.6927C1025.08 96.33 1022.35 94.1252 1021.66 93.2984C1020.94 92.4372 1020.83 92.3855 1020.56 92.5578C1020.13 92.8161 1020.41 93.5912 1020.56 94.0391C1020.97 95.2104 1022.65 97.2773 1025.49 98.2936C1028 99.1893 1034.09 99.6888 1041.48 96.5539C1049.74 93.0401 1056.2 83.2736 1054.3 75.0918C1052.4 66.7895 1039.86 64.0507 1028 68.6842C1020.94 71.4402 1013.29 75.7808 1007.79 81.4305C1001.25 88.1482 1000.22 93.9874 1000.64 96.4333C1002.16 105.115 1013.05 110.764 1017.41 114.95C1017.19 115.088 1016.99 115.208 1016.82 115.312C1014.64 116.5 1006.33 121.271 1004.26 126.318C1001.91 132.037 1004.64 136.136 1006.44 136.688C1012.04 138.393 1017.79 135.327 1020.88 130.263C1023.97 125.199 1023.59 118.619 1022.16 115.605C1022.15 115.57 1022.13 115.536 1022.1 115.501C1022.66 115.139 1023.25 114.761 1023.81 114.399C1024.92 113.675 1026.02 113.004 1026.96 112.452C1026.43 114.054 1026.04 115.966 1025.85 118.722C1025.61 121.96 1026.82 126.163 1028.4 127.817C1029.11 128.54 1029.94 128.558 1030.47 128.558C1032.32 128.558 1033.15 126.87 1034.08 124.871C1035.21 122.426 1036.23 119.583 1036.23 119.583C1036.23 119.583 1034.96 127.266 1038.4 127.266C1039.66 127.266 1040.93 125.474 1041.49 124.561C1041.49 124.579 1041.49 124.579 1041.49 124.579C1041.49 124.579 1041.52 124.527 1041.59 124.406C1041.71 124.182 1041.79 124.045 1041.79 124.045C1041.79 124.045 1041.79 124.027 1041.79 124.01C1042.29 123.046 1043.42 120.858 1045.1 117.224C1047.26 112.539 1049.35 106.682 1049.35 106.682C1049.35 106.682 1049.54 108.112 1050.18 110.489C1050.55 111.884 1051.34 113.417 1051.97 114.898C1051.46 115.673 1051.15 116.104 1051.15 116.104C1051.15 116.104 1051.15 116.104 1051.17 116.121C1050.76 116.707 1050.32 117.344 1049.83 117.964C1048.12 120.204 1046.09 122.77 1045.8 123.511C1045.48 124.389 1045.55 125.026 1046.18 125.543C1046.64 125.922 1047.45 125.974 1048.28 125.922C1049.82 125.802 1050.9 125.388 1051.43 125.13C1052.26 124.803 1053.24 124.303 1054.14 123.562C1055.82 122.202 1056.84 120.255 1056.75 117.689C1056.7 116.276 1056.28 114.864 1055.76 113.538C1055.92 113.296 1056.06 113.055 1056.21 112.814C1058.86 108.56 1060.92 103.892 1060.92 103.892C1060.92 103.892 1061.11 105.321 1061.75 107.698C1062.06 108.904 1062.7 110.213 1063.27 111.488C1060.78 113.71 1059.24 116.294 1058.69 117.982C1057.7 121.116 1058.47 122.529 1059.93 122.856C1060.59 123.011 1061.53 122.667 1062.22 122.339C1063.1 122.029 1064.13 121.495 1065.12 120.703C1066.8 119.342 1068.41 117.448 1068.32 114.881C1068.27 113.71 1067.99 112.556 1067.6 111.436C1069.71 110.472 1072.44 109.938 1075.92 110.385C1083.38 111.35 1084.86 116.466 1084.57 118.619C1084.29 120.772 1082.72 121.943 1082.21 122.305C1081.69 122.667 1081.52 122.787 1081.56 123.046C1081.63 123.425 1081.88 123.407 1082.32 123.338C1082.93 123.218 1086.24 121.599 1086.38 117.637C1086.61 112.573 1082.22 107.044 1074.46 107.095ZM1016.9 128.42C1014.42 131.382 1010.97 132.502 1009.48 131.555C1007.88 130.538 1008.51 126.163 1011.55 123.028C1013.4 121.116 1015.78 119.342 1017.37 118.257C1017.73 118.016 1018.26 117.672 1018.9 117.241C1019.01 117.172 1019.07 117.138 1019.07 117.138C1019.2 117.051 1019.33 116.965 1019.45 116.879C1020.56 121.358 1019.5 125.302 1016.9 128.42ZM1034.92 114.95C1034.06 117.258 1032.26 123.166 1031.16 122.839C1030.22 122.563 1029.64 118.085 1030.97 113.658C1031.65 111.436 1033.07 108.784 1033.91 107.75C1035.25 106.096 1036.74 105.545 1037.1 106.217C1037.56 107.095 1035.46 113.503 1034.92 114.95ZM1049.8 122.77C1049.44 122.977 1049.1 123.115 1048.94 123.011C1048.83 122.942 1049.1 122.667 1049.1 122.667C1049.1 122.667 1050.96 120.462 1051.7 119.463C1052.12 118.877 1052.62 118.188 1053.16 117.413C1053.16 117.482 1053.16 117.568 1053.16 117.637C1053.16 120.272 1050.84 122.047 1049.8 122.77ZM1061.28 119.893C1061.01 119.687 1061.06 118.998 1061.95 116.845C1062.3 116.001 1063.11 114.588 1064.51 113.228C1064.66 113.779 1064.77 114.313 1064.76 114.812C1064.74 118.137 1062.58 119.377 1061.28 119.893Z" fill="#CD6799"/>
</g>
</g>
<g clip-path="url(#clip10_23_459)">
<path d="M20.0104 194H92.9896C95.6181 193.997 98.2213 194.573 100.65 195.695C103.079 196.817 105.286 198.462 107.145 200.537C109.003 202.612 110.477 205.076 111.482 207.787C112.487 210.499 113.002 213.405 113 216.34V294.66C113.002 297.595 112.487 300.501 111.482 303.213C110.477 305.924 109.003 308.388 107.145 310.463C105.286 312.538 103.079 314.183 100.65 315.305C98.2213 316.427 95.6181 317.003 92.9896 317H20.0104C17.3819 317.003 14.7787 316.427 12.3498 315.305C9.92095 314.183 7.71403 312.538 5.8554 310.463C3.99677 308.388 2.52291 305.924 1.51817 303.213C0.513425 300.501 -0.0024685 297.595 8.88027e-06 294.66V216.34C-0.0024685 213.405 0.513425 210.499 1.51817 207.787C2.52291 205.076 3.99677 202.612 5.8554 200.537C7.71403 198.462 9.92095 196.817 12.3498 195.695C14.7787 194.573 17.3819 193.997 20.0104 194Z" fill="#000B1D"/>
<g clip-path="url(#clip11_23_459)">
<path d="M56.5 263.633C60.8387 263.633 64.356 259.854 64.356 255.192C64.356 250.531 60.8387 246.752 56.5 246.752C52.1613 246.752 48.644 250.531 48.644 255.192C48.644 259.854 52.1613 263.633 56.5 263.633Z" fill="#61DAFB"/>
<path fill-rule="evenodd" clip-rule="evenodd" d="M18.8891 249.926C16.983 251.774 16.1823 253.558 16.1823 255.192C16.1823 256.827 16.983 258.61 18.8891 260.459C20.795 262.308 23.656 264.063 27.3476 265.577C34.7182 268.601 45.0246 270.512 56.4999 270.512C67.9753 270.512 78.2817 268.601 85.6523 265.577C89.3439 264.063 92.2048 262.308 94.1107 260.459C96.0168 258.61 96.8176 256.827 96.8176 255.192C96.8176 253.558 96.0168 251.774 94.1107 249.926C92.2048 248.077 89.3439 246.322 85.6523 244.808C78.2817 241.784 67.9753 239.873 56.4999 239.873C45.0246 239.873 34.7182 241.784 27.3476 244.808C23.656 246.322 20.795 248.077 18.8891 249.926ZM26.0376 241.121C33.9237 237.886 44.6943 235.927 56.4999 235.927C68.3055 235.927 79.0761 237.886 86.9622 241.121C90.899 242.736 94.2113 244.708 96.5716 246.997C98.9317 249.286 100.49 252.052 100.49 255.192C100.49 258.333 98.9317 261.099 96.5716 263.388C94.2113 265.677 90.899 267.648 86.9622 269.263C79.0761 272.499 68.3055 274.458 56.4999 274.458C44.6943 274.458 33.9237 272.499 26.0376 269.263C22.1009 267.648 18.7886 265.677 16.4282 263.388C14.0681 261.099 12.5098 258.333 12.5098 255.192C12.5098 252.052 14.0681 249.286 16.4282 246.997C18.7886 244.708 22.1009 242.736 26.0376 241.121Z" fill="#61DAFB"/>
<path fill-rule="evenodd" clip-rule="evenodd" d="M41.9398 217.563C39.4966 216.714 37.659 216.861 36.3412 217.678C35.0233 218.496 33.9865 220.132 33.4494 222.83C32.9123 225.528 32.9281 229.067 33.5532 233.26C34.8013 241.629 38.4138 252.175 44.1514 262.852C49.8891 273.53 56.5831 282.164 62.7056 287.51C65.772 290.188 68.6173 291.972 71.0602 292.821C73.5034 293.671 75.341 293.524 76.6588 292.707C77.9766 291.889 79.0135 290.253 79.5506 287.555C80.0876 284.857 80.0719 281.318 79.4467 277.125C78.1986 268.756 74.5862 258.21 68.8485 247.533C63.1109 236.855 56.4169 228.221 50.2944 222.875C47.2279 220.197 44.3827 218.413 41.9398 217.563ZM52.6107 219.813C59.1614 225.533 66.1262 234.575 72.029 245.56C77.9318 256.544 81.7376 267.546 83.073 276.501C83.7396 280.972 83.8069 285.039 83.1418 288.38C82.4768 291.721 81.0263 294.554 78.4951 296.124C75.9638 297.694 72.9549 297.627 69.9298 296.576C66.9044 295.524 63.6594 293.428 60.3893 290.572C53.8386 284.852 46.8738 275.81 40.971 264.825C35.0682 253.841 31.2624 242.839 29.927 233.884C29.2604 229.413 29.193 225.346 29.8581 222.005C30.5232 218.664 31.9736 215.831 34.5049 214.261C37.0362 212.691 40.045 212.758 43.0702 213.809C46.0956 214.861 49.3406 216.957 52.6107 219.813Z" fill="#61DAFB"/>
<path fill-rule="evenodd" clip-rule="evenodd" d="M79.5504 222.83C79.0133 220.132 77.9765 218.496 76.6586 217.678C75.3408 216.861 73.5032 216.714 71.06 217.564C68.6171 218.413 65.7719 220.197 62.7054 222.875C56.5829 228.221 49.8889 236.855 44.1513 247.533C38.4136 258.21 34.8012 268.756 33.5531 277.125C32.928 281.318 32.9122 284.857 33.4492 287.555C33.9863 290.253 35.0232 291.889 36.341 292.707C37.6588 293.524 39.4964 293.671 41.9396 292.822C44.3825 291.972 47.2278 290.188 50.2942 287.51C56.4167 282.164 63.1107 273.53 68.8484 262.852C74.586 252.175 78.1985 241.629 79.4466 233.26C80.0717 229.067 80.0875 225.528 79.5504 222.83ZM83.0728 233.884C81.7374 242.839 77.9316 253.841 72.0288 264.825C66.126 275.81 59.1612 284.852 52.6105 290.572C49.3404 293.428 46.0954 295.524 43.07 296.576C40.0449 297.627 37.036 297.694 34.5047 296.124C31.9735 294.554 30.523 291.721 29.858 288.38C29.1929 285.039 29.2602 280.972 29.9268 276.501C31.2622 267.546 35.068 256.544 40.9708 245.56C46.8736 234.575 53.8384 225.533 60.3891 219.813C63.6592 216.957 66.9042 214.861 69.9296 213.809C72.9548 212.758 75.9636 212.691 78.4949 214.261C81.0262 215.831 82.4767 218.664 83.1417 222.005C83.8068 225.346 83.7394 229.413 83.0728 233.884Z" fill="#61DAFB"/>
</g>
</g>
<g clip-path="url(#clip12_23_459)">
<path d="M156.01 354H228.99C231.618 353.997 234.221 354.573 236.65 355.695C239.079 356.817 241.286 358.462 243.145 360.537C245.003 362.612 246.477 365.076 247.482 367.787C248.487 370.499 249.002 373.405 249 376.34V454.66C249.002 457.595 248.487 460.501 247.482 463.213C246.477 465.924 245.003 468.388 243.145 470.463C241.286 472.538 239.079 474.183 236.65 475.305C234.221 476.427 231.618 477.003 228.99 477H156.01C153.382 477.003 150.779 476.427 148.35 475.305C145.921 474.183 143.714 472.538 141.855 470.463C139.997 468.388 138.523 465.924 137.518 463.213C136.513 460.501 135.998 457.595 136 454.66V376.34C135.998 373.405 136.513 370.499 137.518 367.787C138.523 365.076 139.997 362.612 141.855 360.537C143.714 358.462 145.921 356.817 148.35 355.695C150.779 354.573 153.382 353.997 156.01 354Z" fill="#000B1D"/>
<path d="M232.145 440.522C232.783 439.318 233.18 437.962 233.18 436.744V394.47C233.18 393.252 232.784 391.897 232.145 390.693L192.5 415.607L232.145 440.522Z" fill="#00599C"/>
<path d="M196.023 464.523L229.657 443.386C230.626 442.777 231.507 441.726 232.145 440.522L192.5 415.607L152.855 440.522C153.494 441.726 154.374 442.778 155.343 443.386L188.977 464.523C190.915 465.741 194.086 465.741 196.023 464.523Z" fill="#004482"/>
<path d="M232.145 390.693C231.507 389.489 230.626 388.437 229.657 387.828L196.023 366.691C194.086 365.474 190.915 365.474 188.977 366.691L155.343 387.828C153.405 389.046 151.82 392.035 151.82 394.47V436.744C151.82 437.962 152.216 439.318 152.855 440.522L192.5 415.608L232.145 390.693Z" fill="#659AD2"/>
<path d="M192.5 445.127C177.546 445.127 165.38 431.885 165.38 415.607C165.38 399.33 177.546 386.087 192.5 386.087C202.15 386.087 211.149 391.74 215.986 400.838L204.249 408.231C201.828 403.677 197.326 400.847 192.5 400.847C185.023 400.847 178.94 407.469 178.94 415.607C178.94 423.746 185.023 430.367 192.5 430.367C197.326 430.367 201.829 427.538 204.25 422.983L215.987 430.376C211.15 439.475 202.15 445.127 192.5 445.127Z" fill="white"/>
<path d="M219.62 413.967H216.607V410.688H213.594V413.967H210.58V417.247H213.594V420.528H216.607V417.247H219.62V413.967Z" fill="white"/>
<path d="M230.92 413.967H227.907V410.688H224.894V413.967H221.88V417.247H224.894V420.528H227.907V417.247H230.92V413.967Z" fill="white"/>
</g>
<g clip-path="url(#clip13_23_459)">
<path d="M304.01 354H376.99C379.618 353.997 382.221 354.573 384.65 355.695C387.079 356.817 389.286 358.462 391.145 360.537C393.003 362.612 394.477 365.076 395.482 367.787C396.487 370.499 397.002 373.405 397 376.34V454.66C397.002 457.595 396.487 460.501 395.482 463.213C394.477 465.924 393.003 468.388 391.145 470.463C389.286 472.538 387.079 474.183 384.65 475.305C382.221 476.427 379.618 477.003 376.99 477H304.01C301.382 477.003 298.779 476.427 296.35 475.305C293.921 474.183 291.714 472.538 289.855 470.463C287.997 468.388 286.523 465.924 285.518 463.213C284.513 460.501 283.998 457.595 284 454.66V376.34C283.998 373.405 284.513 370.499 285.518 367.787C286.523 365.076 287.997 362.612 289.855 360.537C291.714 358.462 293.921 356.817 296.35 355.695C298.779 354.573 301.382 353.997 304.01 354Z" fill="#000B1D"/>
<path d="M378.351 396.421C378.351 394.864 378.045 393.487 377.426 392.307C376.818 391.145 375.908 390.171 374.687 389.402C364.607 383.076 354.519 376.769 344.443 370.437C341.726 368.73 339.093 368.792 336.396 370.524C332.385 373.099 312.299 385.625 306.314 389.398C303.849 390.952 302.649 393.329 302.649 396.418C302.645 409.14 302.649 421.862 302.645 434.584C302.645 436.107 302.939 437.457 303.53 438.62C304.138 439.816 305.061 440.816 306.311 441.604C312.296 445.377 332.384 457.902 336.395 460.478C339.093 462.21 341.726 462.272 344.444 460.565C354.52 454.232 364.609 447.926 374.69 441.6C375.939 440.813 376.862 439.812 377.47 438.616C378.061 437.453 378.355 436.104 378.355 434.58C378.355 434.58 378.355 409.143 378.351 396.421Z" fill="#A179DC"/>
<path d="M340.616 415.377L303.53 438.62C304.138 439.816 305.061 440.816 306.31 441.603C312.296 445.377 332.384 457.902 336.395 460.478C339.093 462.21 341.726 462.272 344.444 460.565C354.52 454.232 364.609 447.925 374.69 441.6C375.939 440.813 376.862 439.812 377.47 438.616L340.616 415.377Z" fill="#280068"/>
<path d="M378.351 396.421C378.35 394.863 378.044 393.487 377.426 392.306L340.616 415.377L377.47 438.616C378.061 437.453 378.354 436.103 378.355 434.58C378.355 434.58 378.355 409.143 378.351 396.421Z" fill="#390091"/>
<path d="M362.451 406.688V411.033H366.442V406.688H368.438V411.033H372.429V413.205H368.438V417.549H372.429V419.722H368.438V424.066H366.442V419.722H362.451V424.066H360.455V419.722H356.464V417.549H360.455V413.205H356.464V411.033H360.455V406.688H362.451ZM366.442 413.205H362.451V417.549H366.442V413.205Z" fill="white"/>
<path d="M340.697 384.869C351.108 384.869 360.197 391.023 365.066 400.171L365.018 400.083L352.769 407.76C350.356 403.312 345.932 400.311 340.857 400.249L340.697 400.248C332.958 400.248 326.684 407.077 326.684 415.501C326.682 418.156 327.319 420.765 328.532 423.068C330.948 427.658 335.489 430.754 340.697 430.754C345.939 430.754 350.505 427.619 352.908 422.98L352.85 423.091L365.08 430.803C360.265 439.874 351.3 446.009 341.011 446.131L340.697 446.133C330.254 446.133 321.139 439.941 316.283 430.745C313.912 426.255 312.556 421.051 312.556 415.501C312.556 398.584 325.155 384.869 340.697 384.869L340.697 384.869Z" fill="white"/>
</g>
<g clip-path="url(#clip14_23_459)">
<path d="M584.01 348H656.99C659.618 347.997 662.221 348.573 664.65 349.695C667.079 350.817 669.286 352.462 671.145 354.537C673.003 356.612 674.477 359.076 675.482 361.787C676.487 364.499 677.002 367.405 677 370.34V448.66C677.002 451.595 676.487 454.501 675.482 457.213C674.477 459.924 673.003 462.388 671.145 464.463C669.286 466.538 667.079 468.183 664.65 469.305C662.221 470.427 659.618 471.003 656.99 471H584.01C581.382 471.003 578.779 470.427 576.35 469.305C573.921 468.183 571.714 466.538 569.855 464.463C567.997 462.388 566.523 459.924 565.518 457.213C564.513 454.501 563.998 451.595 564 448.66V370.34C563.998 367.405 564.513 364.499 565.518 361.787C566.523 359.076 567.997 356.612 569.855 354.537C571.714 352.462 573.921 350.817 576.35 349.695C578.779 348.573 581.382 347.997 584.01 348Z" fill="#A179DC"/>
<path d="M647.809 398.752V404.082H652.705V398.752H655.154V404.082H660.05V406.747H655.154V412.076H660.05V414.741H655.154V420.071H652.705V414.741H647.809V420.071H645.361V414.741H640.465V412.076H645.361V406.747H640.465V404.082H645.361V398.752H647.809ZM652.705 406.746H647.809V412.076H652.705V406.746Z" fill="white"/>
<path d="M621.123 371.986C633.894 371.986 645.044 379.535 651.017 390.757L650.959 390.649L635.932 400.066C632.972 394.61 627.545 390.928 621.319 390.852L621.123 390.851C611.629 390.851 603.932 399.229 603.932 409.563C603.929 412.82 604.711 416.021 606.2 418.847C609.163 424.477 614.733 428.275 621.123 428.275C627.553 428.275 633.155 424.429 636.103 418.738L636.031 418.875L651.035 428.335C645.128 439.462 634.13 446.989 621.508 447.139L621.123 447.141C608.312 447.141 597.13 439.545 591.172 428.264C588.264 422.756 586.6 416.372 586.6 409.563C586.6 388.81 602.056 371.985 621.123 371.985L621.123 371.986Z" fill="white"/>
</g>
<g clip-path="url(#clip15_23_459)">
<path d="M161.01 194H233.99C236.618 193.997 239.221 194.573 241.65 195.695C244.079 196.817 246.286 198.462 248.145 200.537C250.003 202.612 251.477 205.076 252.482 207.787C253.487 210.499 254.002 213.405 254 216.34V294.66C254.002 297.595 253.487 300.501 252.482 303.213C251.477 305.924 250.003 308.388 248.145 310.463C246.286 312.538 244.079 314.183 241.65 315.305C239.221 316.427 236.618 317.003 233.99 317H161.01C158.382 317.003 155.779 316.427 153.35 315.305C150.921 314.183 148.714 312.538 146.855 310.463C144.997 308.388 143.523 305.924 142.518 303.213C141.513 300.501 140.998 297.595 141 294.66V216.34C140.998 213.405 141.513 210.499 142.518 207.787C143.523 205.076 144.997 202.612 146.855 200.537C148.714 198.462 150.921 196.817 153.35 195.695C155.779 194.573 158.382 193.997 161.01 194Z" fill="#000B1D"/>
<path d="M157.96 247.839C157.779 247.839 157.734 247.741 157.824 247.594L158.771 246.268C158.862 246.121 159.087 246.023 159.267 246.023H175.365C175.546 246.023 175.591 246.17 175.501 246.318L174.734 247.594C174.644 247.741 174.418 247.888 174.283 247.888L157.96 247.839Z" fill="#2DBCAF"/>
<path d="M151.151 252.355C150.97 252.355 150.925 252.257 151.016 252.109L151.962 250.784C152.053 250.637 152.278 250.539 152.459 250.539H173.021C173.201 250.539 173.291 250.686 173.246 250.833L172.885 252.011C172.84 252.208 172.66 252.306 172.479 252.306L151.151 252.355Z" fill="#2DBCAF"/>
<path d="M162.063 256.87C161.883 256.87 161.838 256.723 161.928 256.576L162.559 255.349C162.649 255.202 162.83 255.054 163.01 255.054H172.029C172.209 255.054 172.299 255.202 172.299 255.398L172.209 256.576C172.209 256.772 172.029 256.919 171.893 256.919L162.063 256.87Z" fill="#2DBCAF"/>
<path d="M208.869 246.956C206.028 247.741 204.089 248.33 201.293 249.115C200.617 249.312 200.572 249.361 199.986 248.624C199.309 247.79 198.813 247.25 197.866 246.759C195.026 245.238 192.275 245.679 189.705 247.496C186.638 249.655 185.06 252.846 185.105 256.821C185.15 260.748 187.631 263.987 191.193 264.527C194.259 264.969 196.829 263.791 198.858 261.288C199.264 260.748 199.625 260.159 200.076 259.472C198.453 259.472 196.424 259.472 191.373 259.472C190.426 259.472 190.201 258.834 190.516 257.999C191.103 256.478 192.185 253.925 192.816 252.649C192.951 252.355 193.267 251.864 193.943 251.864C196.243 251.864 204.72 251.864 210.357 251.864C210.267 253.189 210.267 254.514 210.086 255.84C209.59 259.374 208.373 262.613 206.389 265.46C203.142 270.123 198.904 273.019 193.538 273.804C189.119 274.442 185.015 273.509 181.408 270.564C178.071 267.816 176.177 264.184 175.681 259.668C175.095 254.318 176.538 249.508 179.514 245.287C182.715 240.722 186.954 237.826 192.14 236.795C196.378 235.961 200.437 236.501 204.089 239.201C206.479 240.918 208.193 243.274 209.32 246.121C209.59 246.563 209.41 246.808 208.869 246.956Z" fill="#2DBCAF"/>
<path d="M223.795 274.098C219.691 274 215.949 272.724 212.792 269.779C210.132 267.276 208.463 264.085 207.922 260.306C207.11 254.76 208.508 249.851 211.575 245.483C214.866 240.771 218.835 238.317 224.2 237.286C228.8 236.403 233.129 236.894 237.052 239.79C240.614 242.44 242.824 246.023 243.41 250.735C244.176 257.361 242.418 262.76 238.224 267.374C235.248 270.663 231.596 272.724 227.402 273.657C226.185 273.902 224.967 273.951 223.795 274.098ZM234.527 254.269C234.482 253.631 234.482 253.14 234.391 252.649C233.58 247.79 229.476 245.041 225.193 246.121C220.999 247.152 218.293 250.048 217.301 254.662C216.49 258.49 218.203 262.368 221.45 263.938C223.93 265.116 226.41 264.969 228.8 263.644C232.362 261.631 234.301 258.49 234.527 254.269Z" fill="#2DBCAF"/>
</g>
<g clip-path="url(#clip16_23_459)">
<path d="M443.01 194H515.99C518.618 193.997 521.221 194.573 523.65 195.695C526.079 196.817 528.286 198.462 530.145 200.537C532.003 202.612 533.477 205.076 534.482 207.787C535.487 210.499 536.002 213.405 536 216.34V294.66C536.002 297.595 535.487 300.501 534.482 303.213C533.477 305.924 532.003 308.388 530.145 310.463C528.286 312.538 526.079 314.183 523.65 315.305C521.221 316.427 518.618 317.003 515.99 317H443.01C440.382 317.003 437.779 316.427 435.35 315.305C432.921 314.183 430.714 312.538 428.855 310.463C426.997 308.388 425.523 305.924 424.518 303.213C423.513 300.501 422.998 297.595 423 294.66V216.34C422.998 213.405 423.513 210.499 424.518 207.787C425.523 205.076 426.997 202.612 428.855 200.537C430.714 198.462 432.921 196.817 435.35 195.695C437.779 194.573 440.382 193.997 443.01 194Z" fill="#F0F0F0"/>
<path d="M430.91 255.5C430.91 270.784 452.55 283.175 479.243 283.175C505.936 283.175 527.576 270.784 527.576 255.5C527.576 240.216 505.936 227.825 479.243 227.825C452.55 227.825 430.91 240.216 430.91 255.5Z" fill="url(#paint16_radial_23_459)"/>
<path d="M479.243 281.12C504.893 281.12 525.688 269.649 525.688 255.5C525.688 241.35 504.893 229.88 479.243 229.88C453.592 229.88 432.798 241.35 432.798 255.5C432.798 269.649 453.592 281.12 479.243 281.12Z" fill="#777BB3"/>
<path d="M457.17 258.676C459.279 258.676 460.853 258.253 461.85 257.418C462.835 256.592 463.516 255.161 463.873 253.165C464.206 251.299 464.079 249.996 463.496 249.293C462.901 248.575 461.613 248.211 459.669 248.211H456.298L454.43 258.676H457.17ZM446.145 271.568C445.989 271.568 445.84 271.492 445.741 271.36C445.641 271.229 445.601 271.056 445.631 270.889L450.583 243.154C450.631 242.886 450.847 242.692 451.098 242.692H461.771C465.125 242.692 467.622 243.684 469.191 245.639C470.769 247.605 471.256 250.353 470.639 253.807C470.388 255.214 469.956 256.52 469.356 257.69C468.755 258.861 467.96 259.945 466.994 260.912C465.837 262.09 464.528 262.944 463.107 263.447C461.708 263.943 459.911 264.195 457.767 264.195H453.445L452.211 271.106C452.163 271.375 451.947 271.568 451.696 271.568H446.145Z" fill="black"/>
<path d="M456.731 248.781H459.669C462.015 248.781 462.83 249.342 463.107 249.676C463.567 250.23 463.653 251.399 463.358 253.057C463.026 254.912 462.411 256.227 461.53 256.966C460.628 257.722 459.16 258.105 457.17 258.105H455.066L456.731 248.781ZM461.771 242.121H451.098C450.596 242.121 450.164 242.509 450.068 243.045L445.116 270.78C445.056 271.114 445.137 271.46 445.336 271.724C445.535 271.987 445.832 272.139 446.145 272.139H451.696C452.198 272.139 452.63 271.752 452.726 271.215L453.877 264.765H457.767C459.966 264.765 461.818 264.504 463.27 263.99C464.763 263.462 466.136 262.566 467.352 261.329C468.358 260.322 469.186 259.191 469.814 257.969C470.441 256.746 470.892 255.382 471.154 253.915C471.804 250.28 471.276 247.369 469.586 245.264C467.913 243.179 465.283 242.121 461.771 242.121ZM453.794 259.247H457.17C459.408 259.247 461.075 258.788 462.17 257.871C463.265 256.953 464.004 255.421 464.388 253.274C464.755 251.213 464.588 249.758 463.886 248.911C463.183 248.064 461.778 247.64 459.669 247.64H455.866L453.794 259.247ZM461.771 243.263C464.982 243.263 467.324 244.18 468.796 246.015C470.269 247.849 470.712 250.41 470.125 253.698C469.883 255.052 469.474 256.29 468.898 257.412C468.322 258.534 467.569 259.561 466.639 260.491C465.531 261.62 464.3 262.425 462.945 262.904C461.59 263.385 459.864 263.624 457.767 263.624H453.012L451.696 270.997H446.145L451.098 243.263H461.771Z" fill="white"/>
<path d="M483.366 264.195C483.209 264.195 483.061 264.119 482.961 263.987C482.861 263.855 482.821 263.682 482.851 263.515L485.041 251.244C485.25 250.077 485.198 249.239 484.897 248.885C484.712 248.669 484.158 248.306 482.518 248.306H478.549L475.795 263.733C475.747 264.001 475.531 264.195 475.28 264.195H469.774C469.617 264.195 469.469 264.119 469.369 263.987C469.269 263.855 469.229 263.682 469.259 263.515L474.211 235.781C474.259 235.513 474.475 235.319 474.726 235.319H480.233C480.389 235.319 480.538 235.395 480.637 235.526C480.737 235.658 480.777 235.831 480.747 235.999L479.552 242.692H483.822C487.074 242.692 489.28 243.317 490.564 244.601C491.874 245.911 492.282 248.005 491.779 250.827L489.475 263.733C489.427 264.001 489.211 264.195 488.96 264.195H483.366Z" fill="black"/>
<path d="M480.233 234.748H474.726C474.224 234.748 473.792 235.135 473.696 235.672L468.744 263.406C468.684 263.741 468.765 264.087 468.964 264.35C469.164 264.613 469.461 264.765 469.774 264.765H475.28C475.783 264.765 476.214 264.378 476.31 263.842L478.982 248.877H482.518C484.155 248.877 484.498 249.257 484.512 249.273C484.612 249.39 484.742 249.928 484.527 251.135L482.336 263.406C482.276 263.741 482.357 264.087 482.556 264.35C482.756 264.613 483.052 264.765 483.366 264.765H488.96C489.462 264.765 489.894 264.378 489.989 263.842L492.293 250.935C492.834 247.906 492.371 245.633 490.919 244.18C489.533 242.795 487.212 242.121 483.822 242.121H480.188L481.262 236.107C481.322 235.773 481.241 235.426 481.042 235.163C480.843 234.9 480.546 234.748 480.233 234.748ZM480.233 235.89L478.916 243.263H483.822C486.908 243.263 489.038 243.85 490.209 245.021C491.381 246.193 491.732 248.092 491.264 250.718L488.96 263.624H483.366L485.556 251.353C485.806 249.957 485.714 249.004 485.281 248.497C484.848 247.989 483.927 247.735 482.518 247.735H478.117L475.28 263.624H469.774L474.726 235.89H480.233Z" fill="white"/>
<path d="M500.492 258.676C502.601 258.676 504.175 258.253 505.172 257.418C506.157 256.593 506.838 255.161 507.195 253.165C507.528 251.299 507.401 249.996 506.818 249.293C506.223 248.575 504.935 248.211 502.991 248.211H499.62L497.752 258.676H500.492ZM489.468 271.568C489.311 271.568 489.163 271.492 489.063 271.36C488.963 271.229 488.923 271.056 488.953 270.889L493.905 243.154C493.953 242.886 494.169 242.692 494.42 242.692H505.093C508.447 242.692 510.944 243.684 512.513 245.639C514.091 247.605 514.578 250.353 513.961 253.807C513.71 255.214 513.278 256.52 512.678 257.69C512.077 258.861 511.282 259.945 510.316 260.912C509.159 262.09 507.85 262.944 506.429 263.447C505.03 263.943 503.233 264.195 501.089 264.195H496.767L495.533 271.106C495.485 271.375 495.269 271.568 495.018 271.568H489.468Z" fill="black"/>
<path d="M500.053 248.781H502.991C505.337 248.781 506.152 249.342 506.429 249.676C506.889 250.23 506.975 251.399 506.68 253.056C506.348 254.912 505.733 256.227 504.852 256.966C503.949 257.722 502.482 258.105 500.492 258.105H498.388L500.053 248.781ZM505.093 242.121H494.42C493.918 242.121 493.486 242.509 493.39 243.045L488.438 270.78C488.378 271.114 488.459 271.46 488.658 271.724C488.857 271.987 489.154 272.139 489.467 272.139H495.018C495.52 272.139 495.952 271.752 496.048 271.215L497.199 264.765H501.088C503.288 264.765 505.14 264.504 506.592 263.99C508.085 263.462 509.459 262.566 510.674 261.328C511.68 260.322 512.508 259.191 513.136 257.969C513.763 256.746 514.214 255.382 514.476 253.915C515.125 250.28 514.598 247.369 512.908 245.264C511.235 243.179 508.605 242.121 505.093 242.121ZM497.116 259.247H500.492C502.729 259.247 504.396 258.788 505.492 257.871C506.587 256.953 507.326 255.421 507.71 253.274C508.077 251.213 507.91 249.758 507.208 248.911C506.505 248.064 505.1 247.64 502.991 247.64H499.188L497.116 259.247ZM505.093 243.263C508.304 243.263 510.646 244.18 512.118 246.015C513.591 247.849 514.034 250.41 513.446 253.698C513.205 255.052 512.796 256.29 512.22 257.412C511.644 258.534 510.891 259.561 509.961 260.491C508.853 261.62 507.622 262.425 506.267 262.904C504.912 263.385 503.186 263.624 501.088 263.624H496.334L495.018 270.997H489.467L494.42 243.263H505.093Z" fill="white"/>
</g>
<g clip-path="url(#clip17_23_459)">
<path d="M584.01 194H656.99C659.618 193.997 662.221 194.573 664.65 195.695C667.079 196.817 669.286 198.462 671.145 200.537C673.003 202.612 674.477 205.076 675.482 207.787C676.487 210.499 677.002 213.405 677 216.34V294.66C677.002 297.595 676.487 300.501 675.482 303.213C674.477 305.924 673.003 308.388 671.145 310.463C669.286 312.538 667.079 314.183 664.65 315.305C662.221 316.427 659.618 317.003 656.99 317H584.01C581.382 317.003 578.779 316.427 576.35 315.305C573.921 314.183 571.714 312.538 569.855 310.463C567.997 308.388 566.523 305.924 565.518 303.213C564.513 300.501 563.998 297.595 564 294.66V216.34C563.998 213.405 564.513 210.499 565.518 207.787C566.523 205.076 567.997 202.612 569.855 200.537C571.714 198.462 573.921 196.817 576.35 195.695C578.779 194.573 581.382 193.997 584.01 194Z" fill="#777BB3"/>
<path d="M590.657 262.686C593.404 262.686 595.455 262.135 596.753 261.047C598.037 259.971 598.924 258.107 599.389 255.507C599.822 253.076 599.657 251.379 598.898 250.463C598.122 249.527 596.445 249.053 593.912 249.053H589.522L587.087 262.686H590.657ZM576.295 279.48C576.091 279.48 575.898 279.381 575.768 279.21C575.639 279.038 575.586 278.813 575.625 278.595L582.076 242.466C582.138 242.116 582.42 241.864 582.747 241.864H596.65C601.02 241.864 604.273 243.156 606.317 245.703C608.372 248.264 609.007 251.844 608.203 256.342C607.876 258.175 607.314 259.877 606.531 261.401C605.748 262.927 604.713 264.339 603.455 265.598C601.948 267.133 600.243 268.246 598.391 268.901C596.568 269.547 594.228 269.875 591.434 269.875H585.804L584.196 278.878C584.134 279.228 583.853 279.48 583.526 279.48H576.295Z" fill="black"/>
<path d="M590.085 249.796H593.913C596.969 249.796 598.031 250.526 598.391 250.961C598.99 251.684 599.103 253.207 598.718 255.365C598.286 257.782 597.485 259.496 596.337 260.458C595.161 261.443 593.25 261.943 590.657 261.943H587.916L590.085 249.796ZM596.651 241.12H582.747C582.093 241.12 581.53 241.625 581.405 242.324L574.954 278.453C574.876 278.889 574.982 279.34 575.241 279.683C575.501 280.026 575.887 280.224 576.295 280.224H583.526C584.18 280.224 584.742 279.719 584.867 279.02L586.367 270.618H591.434C594.299 270.618 596.712 270.278 598.603 269.608C600.548 268.92 602.337 267.754 603.921 266.141C605.231 264.83 606.31 263.357 607.128 261.765C607.945 260.171 608.533 258.395 608.874 256.484C609.72 251.749 609.033 247.957 606.831 245.214C604.652 242.498 601.226 241.12 596.651 241.12ZM586.259 263.43H590.657C593.572 263.43 595.743 262.832 597.17 261.637C598.597 260.441 599.559 258.445 600.059 255.649C600.538 252.964 600.32 251.069 599.406 249.965C598.49 248.861 596.659 248.309 593.913 248.309H588.959L586.259 263.43ZM596.651 242.608C600.833 242.608 603.885 243.803 605.803 246.192C607.72 248.582 608.298 251.918 607.533 256.201C607.218 257.965 606.685 259.578 605.935 261.039C605.184 262.501 604.204 263.838 602.992 265.051C601.549 266.521 599.945 267.569 598.18 268.194C596.415 268.82 594.167 269.131 591.434 269.131H585.241L583.526 278.737H576.295L582.747 242.608H596.651Z" fill="white"/>
<path d="M624.782 269.875C624.577 269.875 624.384 269.776 624.255 269.604C624.125 269.433 624.072 269.208 624.111 268.989L626.965 253.004C627.236 251.483 627.169 250.392 626.776 249.931C626.536 249.649 625.813 249.177 623.677 249.177H618.508L614.92 269.273C614.857 269.623 614.576 269.875 614.249 269.875H607.076C606.872 269.875 606.678 269.776 606.548 269.604C606.419 269.433 606.366 269.207 606.405 268.989L612.856 232.86C612.918 232.511 613.2 232.259 613.527 232.259H620.7C620.904 232.259 621.098 232.358 621.227 232.529C621.357 232.701 621.41 232.926 621.371 233.144L619.814 241.864H625.376C629.613 241.864 632.486 242.677 634.159 244.35C635.865 246.056 636.397 248.785 635.741 252.46L632.74 269.273C632.677 269.623 632.396 269.875 632.069 269.875H624.782Z" fill="black"/>
<path d="M620.7 231.515H613.527C612.873 231.515 612.31 232.02 612.185 232.718L605.734 268.847C605.656 269.283 605.762 269.734 606.021 270.077C606.281 270.42 606.668 270.618 607.076 270.618H614.249C614.903 270.618 615.466 270.114 615.59 269.415L619.071 249.92H623.678C625.81 249.92 626.257 250.416 626.275 250.437C626.405 250.589 626.575 251.29 626.294 252.862L623.44 268.847C623.362 269.283 623.468 269.734 623.727 270.077C623.987 270.42 624.374 270.618 624.782 270.618H632.069C632.723 270.618 633.286 270.114 633.41 269.415L636.412 252.602C637.116 248.656 636.513 245.695 634.621 243.802C632.816 241.998 629.792 241.12 625.376 241.12H620.643L622.042 233.286C622.119 232.85 622.014 232.399 621.755 232.056C621.495 231.713 621.108 231.515 620.7 231.515ZM620.7 233.002L618.985 242.608H625.376C629.397 242.608 632.17 243.372 633.697 244.898C635.223 246.424 635.681 248.899 635.07 252.319L632.069 269.131H624.782L627.635 253.146C627.96 251.327 627.841 250.087 627.277 249.425C626.713 248.764 625.513 248.433 623.678 248.433H617.944L614.249 269.131H607.076L613.527 233.002H620.7Z" fill="white"/>
<path d="M647.092 262.686C649.839 262.686 651.89 262.135 653.188 261.047C654.472 259.972 655.359 258.107 655.824 255.507C656.257 253.076 656.092 251.379 655.333 250.463C654.557 249.527 652.88 249.053 650.347 249.053H645.957L643.522 262.686H647.092ZM632.731 279.48C632.527 279.48 632.333 279.381 632.204 279.21C632.074 279.038 632.021 278.813 632.06 278.595L638.511 242.466C638.574 242.116 638.855 241.864 639.182 241.864H653.085C657.455 241.864 660.708 243.156 662.752 245.703C664.807 248.264 665.442 251.843 664.638 256.342C664.311 258.175 663.749 259.877 662.966 261.401C662.183 262.927 661.148 264.339 659.89 265.598C658.383 267.133 656.678 268.246 654.826 268.901C653.003 269.547 650.663 269.875 647.869 269.875H642.239L640.632 278.878C640.569 279.228 640.288 279.48 639.961 279.48H632.731Z" fill="black"/>
<path d="M646.52 249.796H650.347C653.404 249.796 654.465 250.526 654.826 250.961C655.425 251.684 655.538 253.207 655.153 255.365C654.721 257.782 653.919 259.496 652.771 260.458C651.596 261.443 649.685 261.943 647.092 261.943H644.351L646.52 249.796ZM653.085 241.12H639.182C638.528 241.12 637.965 241.625 637.841 242.324L631.389 278.453C631.312 278.889 631.417 279.34 631.676 279.683C631.936 280.026 632.322 280.224 632.73 280.224H639.961C640.615 280.224 641.177 279.719 641.302 279.02L642.802 270.618H647.869C650.734 270.618 653.146 270.278 655.038 269.608C656.983 268.92 658.773 267.753 660.357 266.141C661.666 264.829 662.745 263.357 663.563 261.765C664.38 260.171 664.968 258.395 665.309 256.484C666.155 251.748 665.467 247.956 663.266 245.214C661.086 242.498 657.661 241.12 653.085 241.12ZM642.694 263.43H647.092C650.007 263.43 652.178 262.832 653.605 261.637C655.032 260.441 655.994 258.445 656.494 255.649C656.973 252.964 656.755 251.069 655.84 249.965C654.925 248.861 653.094 248.309 650.347 248.309H645.393L642.694 263.43ZM653.085 242.608C657.268 242.608 660.319 243.803 662.237 246.192C664.155 248.582 664.733 251.918 663.967 256.201C663.652 257.965 663.12 259.578 662.37 261.039C661.619 262.501 660.639 263.838 659.427 265.051C657.983 266.521 656.379 267.569 654.615 268.194C652.85 268.82 650.602 269.131 647.869 269.131H641.676L639.961 278.737H632.73L639.182 242.608H653.085Z" fill="white"/>
</g>
<g clip-path="url(#clip18_23_459)">
<path d="M725.01 194H797.99C800.618 193.997 803.221 194.573 805.65 195.695C808.079 196.817 810.286 198.462 812.145 200.537C814.003 202.612 815.477 205.076 816.482 207.787C817.487 210.499 818.002 213.405 818 216.34V294.66C818.002 297.595 817.487 300.501 816.482 303.213C815.477 305.924 814.003 308.388 812.145 310.463C810.286 312.538 808.079 314.183 805.65 315.305C803.221 316.427 800.618 317.003 797.99 317H725.01C722.382 317.003 719.779 316.427 717.35 315.305C714.921 314.183 712.714 312.538 710.855 310.463C708.997 308.388 707.523 305.924 706.518 303.213C705.513 300.501 704.998 297.595 705 294.66V216.34C704.998 213.405 705.513 210.499 706.518 207.787C707.523 205.076 708.997 202.612 710.855 200.537C712.714 198.462 714.921 196.817 717.35 195.695C719.779 194.573 722.382 193.997 725.01 194Z" fill="#F0F0F0"/>
<path d="M783.746 284.45H783.405V284.242H784.322V284.45H783.984V285.486H783.746V284.45ZM785.576 284.504H785.571L785.233 285.486H785.078L784.743 284.504H784.739V285.486H784.514V284.242H784.845L785.156 285.123L785.466 284.242H785.795V285.486H785.576V284.504H785.576Z" fill="#E76F00"/>
<path d="M753.225 259.024C753.225 259.024 750.853 260.525 754.913 261.033C759.832 261.644 762.346 261.556 767.766 260.44C767.766 260.44 769.192 261.412 771.182 262.255C759.031 267.923 743.681 261.926 753.225 259.024Z" fill="#5382A1"/>
<path d="M751.74 251.626C751.74 251.626 749.08 253.77 753.143 254.227C758.397 254.817 762.547 254.866 769.727 253.361C769.727 253.361 770.72 254.457 772.282 255.056C757.59 259.732 741.226 255.425 751.74 251.626Z" fill="#5382A1"/>
<path d="M764.258 239.078C767.252 242.83 763.472 246.207 763.472 246.207C763.472 246.207 771.074 241.935 767.582 236.585C764.322 231.597 761.821 229.118 775.359 220.572C775.359 220.572 754.109 226.349 764.258 239.078Z" fill="#E76F00"/>
<path d="M780.329 264.495C780.329 264.495 782.085 266.07 778.396 267.287C771.382 269.6 749.203 270.299 743.042 267.38C740.828 266.331 744.981 264.875 746.287 264.57C747.65 264.248 748.429 264.308 748.429 264.308C745.965 262.42 732.508 268.017 741.593 269.62C766.368 273.993 786.756 267.65 780.329 264.495Z" fill="#5382A1"/>
<path d="M754.366 243.962C754.366 243.962 743.085 246.879 750.371 247.938C753.448 248.386 759.581 248.285 765.293 247.764C769.962 247.335 774.65 246.423 774.65 246.423C774.65 246.423 773.004 247.191 771.813 248.076C760.357 251.356 738.226 249.83 744.597 246.475C749.985 243.64 754.366 243.962 754.366 243.962Z" fill="#5382A1"/>
<path d="M774.604 256.275C786.249 249.688 780.865 243.358 777.107 244.211C776.185 244.419 775.775 244.6 775.775 244.6C775.775 244.6 776.117 244.017 776.77 243.765C784.205 240.919 789.923 252.156 774.37 256.607C774.37 256.607 774.55 256.432 774.604 256.275Z" fill="#5382A1"/>
<path d="M767.582 206.772C767.582 206.772 774.032 213.795 761.465 224.593C751.388 233.256 759.167 238.195 761.461 243.838C755.579 238.062 751.262 232.976 754.158 228.243C758.409 221.295 770.185 217.927 767.582 206.772Z" fill="#E76F00"/>
<path d="M755.51 274.124C766.689 274.903 783.855 273.692 784.261 267.935C784.261 267.935 783.48 270.118 775.023 271.851C765.482 273.805 753.714 273.577 746.735 272.325C746.735 272.324 748.164 273.612 755.51 274.124Z" fill="#5382A1"/>
<path d="M753.678 296.124C752.624 297.119 751.51 297.678 750.511 297.678C749.084 297.678 748.313 296.747 748.313 295.254C748.313 293.638 749.139 292.457 752.452 292.457H753.678V296.124H753.678ZM756.588 299.697V288.635C756.588 285.81 755.108 283.945 751.538 283.945C749.454 283.945 747.628 284.505 746.144 285.22L746.572 287.178C747.741 286.711 749.253 286.276 750.737 286.276C752.794 286.276 753.678 287.178 753.678 289.041V290.439H752.652C747.656 290.439 745.402 292.55 745.402 295.719C745.402 298.454 746.887 300.008 749.684 300.008C751.481 300.008 752.823 299.201 754.078 298.018L754.305 299.697H756.588V299.697Z" fill="#E76F00"/>
<path d="M766.299 299.697H762.67L758.302 284.225H761.471L764.182 293.731L764.784 296.59C766.155 292.457 767.125 288.263 767.61 284.225H770.693C769.867 289.32 768.38 294.912 766.299 299.697Z" fill="#E76F00"/>
<path d="M780.221 296.124C779.164 297.119 778.049 297.678 777.049 297.678C775.625 297.678 774.852 296.747 774.852 295.254C774.852 293.638 775.68 292.457 778.993 292.457H780.221V296.124ZM783.13 299.697V288.635C783.13 285.81 781.646 283.945 778.08 283.945C775.995 283.945 774.168 284.505 772.685 285.22L773.113 287.178C774.282 286.711 775.797 286.276 777.28 286.276C779.335 286.276 780.221 287.178 780.221 289.041V290.439H779.193C774.195 290.439 771.942 292.55 771.942 295.719C771.942 298.454 773.426 300.008 776.222 300.008C778.021 300.008 779.362 299.201 780.619 298.018L780.847 299.697H783.13V299.697Z" fill="#E76F00"/>
<path d="M742.211 302.325C741.382 303.643 740.042 304.686 738.575 305.276L737.138 303.436C738.255 302.812 739.212 301.805 739.657 300.867C740.042 300.033 740.201 298.958 740.201 296.386V278.723H743.293V296.144C743.293 299.582 743.04 300.971 742.211 302.325Z" fill="#E76F00"/>
</g>
<g clip-path="url(#clip19_23_459)">
<path d="M866.01 194H938.99C941.618 193.997 944.221 194.573 946.65 195.695C949.079 196.817 951.286 198.462 953.145 200.537C955.003 202.612 956.477 205.076 957.482 207.787C958.487 210.499 959.002 213.405 959 216.34V294.66C959.002 297.595 958.487 300.501 957.482 303.213C956.477 305.924 955.003 308.388 953.145 310.463C951.286 312.538 949.079 314.183 946.65 315.305C944.221 316.427 941.618 317.003 938.99 317H866.01C863.382 317.003 860.779 316.427 858.35 315.305C855.921 314.183 853.714 312.538 851.855 310.463C849.997 308.388 848.523 305.924 847.518 303.213C846.513 300.501 845.998 297.595 846 294.66V216.34C845.998 213.405 846.513 210.499 847.518 207.787C848.523 205.076 849.997 202.612 851.855 200.537C853.714 198.462 855.921 196.817 858.35 195.695C860.779 194.573 863.382 193.997 866.01 194Z" fill="#F0F0F0"/>
<path d="M892.073 278.474C892.073 278.474 889.117 280.345 894.177 280.978C900.307 281.74 903.439 281.63 910.194 280.239C910.194 280.239 911.97 281.451 914.451 282.501C899.308 289.565 880.179 282.092 892.073 278.474Z" fill="#5382A1"/>
<path d="M890.223 269.255C890.223 269.255 886.907 271.927 891.971 272.497C898.519 273.232 903.69 273.292 912.638 271.417C912.638 271.417 913.876 272.783 915.822 273.529C897.513 279.357 877.12 273.989 890.223 269.255Z" fill="#5382A1"/>
<path d="M905.822 253.618C909.553 258.294 904.842 262.501 904.842 262.501C904.842 262.501 914.316 257.178 909.965 250.511C905.901 244.294 902.785 241.205 919.656 230.555C919.656 230.555 893.174 237.754 905.822 253.618Z" fill="#E76F00"/>
<path d="M925.85 285.292C925.85 285.292 928.037 287.254 923.441 288.772C914.7 291.654 887.061 292.525 879.383 288.887C876.623 287.58 881.799 285.766 883.427 285.386C885.125 284.985 886.095 285.06 886.095 285.06C883.026 282.706 866.256 289.681 877.577 291.679C908.452 297.129 933.858 289.225 925.85 285.292Z" fill="#5382A1"/>
<path d="M893.495 259.704C893.495 259.704 879.436 263.339 888.516 264.659C892.35 265.218 899.993 265.091 907.112 264.442C912.931 263.908 918.773 262.772 918.773 262.772C918.773 262.772 916.721 263.728 915.237 264.831C900.96 268.918 873.38 267.017 881.32 262.836C888.035 259.303 893.495 259.704 893.495 259.704Z" fill="#5382A1"/>
<path d="M918.715 275.049C933.228 266.84 926.517 258.951 921.834 260.014C920.686 260.274 920.174 260.499 920.174 260.499C920.174 260.499 920.6 259.773 921.414 259.458C930.68 255.912 937.806 269.916 918.423 275.462C918.423 275.463 918.648 275.244 918.715 275.049Z" fill="#5382A1"/>
<path d="M909.965 213.358C909.965 213.358 918.002 222.109 902.342 235.567C889.783 246.362 899.478 252.518 902.336 259.55C895.006 252.351 889.626 246.014 893.236 240.115C898.533 231.457 913.208 227.259 909.965 213.358Z" fill="#E76F00"/>
<path d="M894.921 297.293C908.851 298.263 930.243 296.754 930.75 289.579C930.75 289.579 929.776 292.299 919.237 294.459C907.347 296.895 892.682 296.611 883.985 295.05C883.985 295.049 885.765 296.654 894.921 297.293Z" fill="#5382A1"/>
</g>
<g clip-path="url(#clip20_23_459)">
<path d="M1007.01 194H1079.99C1082.62 193.997 1085.22 194.573 1087.65 195.695C1090.08 196.817 1092.29 198.462 1094.14 200.537C1096 202.612 1097.48 205.076 1098.48 207.787C1099.49 210.499 1100 213.405 1100 216.34V294.66C1100 297.595 1099.49 300.501 1098.48 303.213C1097.48 305.924 1096 308.388 1094.14 310.463C1092.29 312.538 1090.08 314.183 1087.65 315.305C1085.22 316.427 1082.62 317.003 1079.99 317H1007.01C1004.38 317.003 1001.78 316.427 999.35 315.305C996.921 314.183 994.714 312.538 992.855 310.463C990.997 308.388 989.523 305.924 988.518 303.213C987.513 300.501 986.998 297.595 987 294.66V216.34C986.998 213.405 987.513 210.499 988.518 207.787C989.523 205.076 990.997 202.612 992.855 200.537C994.714 198.462 996.921 196.817 999.35 195.695C1001.78 194.573 1004.38 193.997 1007.01 194Z" fill="#000B1D"/>
<path d="M1043.34 214.295C1023.75 214.295 1024.98 223.541 1024.98 223.541L1025 233.119H1043.69V235.995H1017.58C1017.58 235.995 1005.04 234.448 1005.04 255.96C1005.04 277.472 1015.98 276.709 1015.98 276.709H1022.51V266.727C1022.51 266.727 1022.16 254.819 1033.27 254.819C1044.39 254.819 1051.81 254.819 1051.81 254.819C1051.81 254.819 1062.23 255.002 1062.23 243.862C1062.23 232.722 1062.23 225.442 1062.23 225.442C1062.23 225.442 1063.81 214.295 1043.34 214.295ZM1033.03 220.736C1034.89 220.736 1036.4 222.372 1036.4 224.396C1036.4 226.421 1034.89 228.057 1033.03 228.057C1031.17 228.057 1029.67 226.421 1029.67 224.396C1029.67 222.372 1031.17 220.736 1033.03 220.736Z" fill="url(#paint17_linear_23_459)"/>
<path d="M1043.9 297.841C1063.48 297.841 1062.26 288.595 1062.26 288.595L1062.24 279.016H1043.55V276.141H1069.66C1069.66 276.141 1082.2 277.688 1082.2 256.176C1082.2 234.664 1071.26 235.426 1071.26 235.426H1064.73V245.409C1064.73 245.409 1065.08 257.317 1053.96 257.317C1042.85 257.317 1035.43 257.317 1035.43 257.317C1035.43 257.317 1025.01 257.133 1025.01 268.273C1025.01 279.414 1025.01 286.693 1025.01 286.693C1025.01 286.693 1023.43 297.841 1043.9 297.841ZM1054.2 291.399C1052.34 291.399 1050.84 289.763 1050.84 287.739C1050.84 285.715 1052.34 284.079 1054.2 284.079C1056.06 284.079 1057.57 285.715 1057.57 287.739C1057.57 289.763 1056.06 291.399 1054.2 291.399Z" fill="url(#paint18_linear_23_459)"/>
</g>
<path d="M722.01 348H794.99C797.618 347.997 800.221 348.573 802.65 349.695C805.079 350.817 807.286 352.462 809.145 354.537C811.003 356.612 812.477 359.076 813.482 361.787C814.487 364.499 815.002 367.405 815 370.34V448.66C815.002 451.595 814.487 454.501 813.482 457.213C812.477 459.924 811.003 462.388 809.145 464.463C807.286 466.538 805.079 468.183 802.65 469.305C800.221 470.427 797.618 471.003 794.99 471H722.01C719.382 471.003 716.779 470.427 714.35 469.305C711.921 468.183 709.714 466.538 707.855 464.463C705.997 462.388 704.523 459.924 703.518 457.213C702.513 454.501 701.998 451.595 702 448.66V370.34C701.998 367.405 702.513 364.499 703.518 361.787C704.523 359.076 705.997 356.612 707.855 354.537C709.714 352.462 711.921 350.817 714.35 349.695C716.779 348.573 719.382 347.997 722.01 348Z" fill="#F0F0F0"/>
<path d="M799.277 405.391L762.272 365.115C760.143 362.795 756.687 362.795 754.555 365.115L746.871 373.48L756.618 384.089C758.884 383.256 761.481 383.815 763.286 385.78C765.101 387.758 765.61 390.609 764.826 393.084L774.22 403.309C776.492 402.457 779.114 403.008 780.929 404.986C783.466 407.747 783.466 412.221 780.929 414.983C778.392 417.745 774.282 417.745 771.743 414.983C769.835 412.905 769.363 409.854 770.33 407.295L761.569 397.758L761.568 422.854C762.187 423.187 762.77 423.632 763.286 424.19C765.822 426.951 765.822 431.424 763.286 434.189C760.749 436.95 756.637 436.95 754.102 434.189C751.566 431.424 751.566 426.951 754.102 424.19C754.729 423.509 755.455 422.994 756.229 422.648V397.32C755.454 396.975 754.73 396.464 754.102 395.777C752.18 393.687 751.718 390.617 752.703 388.049L743.095 377.588L717.724 405.205C715.592 407.527 715.592 411.289 717.724 413.609L754.726 453.885C756.857 456.205 760.312 456.205 762.445 453.885L799.277 413.799C801.408 411.478 801.408 407.715 799.277 405.395" fill="#F05133"/>
<path d="M866.01 348H938.99C941.618 347.997 944.221 348.573 946.65 349.695C949.079 350.817 951.286 352.462 953.145 354.537C955.003 356.612 956.477 359.076 957.482 361.787C958.487 364.499 959.002 367.405 959 370.34V448.66C959.002 451.595 958.487 454.501 957.482 457.213C956.477 459.924 955.003 462.388 953.145 464.463C951.286 466.538 949.079 468.183 946.65 469.305C944.221 470.427 941.618 471.003 938.99 471H866.01C863.382 471.003 860.779 470.427 858.35 469.305C855.921 468.183 853.714 466.538 851.855 464.463C849.997 462.388 848.523 459.924 847.518 457.213C846.513 454.501 845.998 451.595 846 448.66V370.34C845.998 367.405 846.513 364.499 847.518 361.787C848.523 359.076 849.997 356.612 851.855 354.537C853.714 352.462 855.921 350.817 858.35 349.695C860.779 348.573 863.382 347.997 866.01 348Z" fill="#F0F0F0"/>
<path d="M902.249 455.625C901.114 455.625 899.987 455.301 898.992 454.677L888.624 447.996C887.076 447.054 887.831 446.72 888.342 446.528C890.407 445.741 890.826 445.563 893.029 444.201C893.261 444.057 893.564 444.108 893.801 444.26L901.766 449.405C902.054 449.574 902.462 449.574 902.728 449.405L933.784 429.893C934.071 429.715 934.258 429.351 934.258 428.979V389.972C934.258 389.582 934.071 389.235 933.778 389.041L902.735 369.546C902.447 369.359 902.066 369.359 901.779 369.546L870.742 389.041C870.441 389.227 870.25 389.591 870.25 389.963V428.97C870.25 429.343 870.436 429.698 870.732 429.876L879.236 435.224C883.853 437.737 886.675 434.775 886.675 431.797V393.297C886.675 392.747 887.072 392.324 887.577 392.324H891.51C892 392.324 892.404 392.747 892.404 393.297V431.814C892.404 438.515 889.046 442.365 883.208 442.365C881.413 442.365 879.998 442.365 876.049 440.25L867.902 435.139C865.889 433.87 864.645 431.5 864.645 428.97V389.963C864.645 387.425 865.889 385.055 867.902 383.803L898.989 364.282C900.955 363.073 903.567 363.073 905.518 364.282L936.566 383.812C938.572 385.072 939.823 387.433 939.823 389.972V428.979C939.823 431.509 938.572 433.87 936.566 435.139L905.518 454.66C904.523 455.286 903.396 455.607 902.246 455.607" fill="#689F63"/>
<path d="M911.841 428.746C898.253 428.746 895.404 421.957 895.404 416.262C895.404 415.721 895.805 415.289 896.304 415.289H900.315C900.758 415.289 901.131 415.64 901.201 416.117C901.807 420.566 903.611 422.81 911.827 422.81C918.373 422.81 921.156 421.2 921.156 417.422C921.156 415.248 920.363 413.631 910.195 412.548C901.691 411.635 896.436 409.595 896.436 402.192C896.436 395.372 901.722 391.31 910.576 391.31C920.518 391.31 925.447 395.067 926.069 403.139C926.092 403.418 925.999 403.689 925.828 403.892C925.657 404.087 925.416 404.205 925.167 404.205H921.132C920.713 404.205 920.347 403.884 920.262 403.444C919.29 398.765 916.942 397.267 910.56 397.267C903.417 397.267 902.585 399.975 902.585 402.005C902.585 404.468 903.564 405.187 913.203 406.575C922.749 407.954 927.281 409.9 927.281 417.202C927.281 424.564 921.638 428.786 911.796 428.786L911.841 428.746Z" fill="#689F63"/>
<defs>
<linearGradient id="paint0_linear_23_459" x1="368.455" y1="306.063" x2="349.551" y2="275.4" gradientUnits="userSpaceOnUse">
<stop stop-color="#FB7655"/>
<stop offset="0.41" stop-color="#E42B1E"/>
<stop offset="0.99" stop-color="#990000"/>
<stop offset="1" stop-color="#990000"/>
</linearGradient>
<linearGradient id="paint1_linear_23_459" x1="376.76" y1="279.149" x2="354.18" y2="265.228" gradientUnits="userSpaceOnUse">
<stop stop-color="#871101"/>
<stop offset="0.99" stop-color="#911209"/>
<stop offset="1" stop-color="#911209"/>
</linearGradient>
<linearGradient id="paint2_linear_23_459" x1="359.569" y1="307.034" x2="336.99" y2="293.114" gradientUnits="userSpaceOnUse">
<stop stop-color="#871101"/>
<stop offset="0.99" stop-color="#911209"/>
<stop offset="1" stop-color="#911209"/>
</linearGradient>
<linearGradient id="paint3_linear_23_459" x1="314.458" y1="267.788" x2="318.387" y2="291.25" gradientUnits="userSpaceOnUse">
<stop stop-color="white"/>
<stop offset="0.23" stop-color="#E57252"/>
<stop offset="0.46" stop-color="#DE3B20"/>
<stop offset="0.99" stop-color="#A60003"/>
<stop offset="1" stop-color="#A60003"/>
</linearGradient>
<linearGradient id="paint4_linear_23_459" x1="337.367" y1="245.787" x2="338.82" y2="269.82" gradientUnits="userSpaceOnUse">
<stop stop-color="white"/>
<stop offset="0.23" stop-color="#E4714E"/>
<stop offset="0.56" stop-color="#BE1A0D"/>
<stop offset="0.99" stop-color="#A80D00"/>
<stop offset="1" stop-color="#A80D00"/>
</linearGradient>
<linearGradient id="paint5_linear_23_459" x1="357.697" y1="223.56" x2="362.01" y2="240.633" gradientUnits="userSpaceOnUse">
<stop stop-color="white"/>
<stop offset="0.18" stop-color="#E46342"/>
<stop offset="0.4" stop-color="#C82410"/>
<stop offset="0.99" stop-color="#A80D00"/>
<stop offset="1" stop-color="#A80D00"/>
</linearGradient>
<linearGradient id="paint6_linear_23_459" x1="346.479" y1="217.491" x2="362.82" y2="209.985" gradientUnits="userSpaceOnUse">
<stop stop-color="white"/>
<stop offset="0.54" stop-color="#C81F11"/>
<stop offset="0.99" stop-color="#BF0905"/>
<stop offset="1" stop-color="#BF0905"/>
</linearGradient>
<linearGradient id="paint7_linear_23_459" x1="300.58" y1="261.781" x2="302.121" y2="275.956" gradientUnits="userSpaceOnUse">
<stop stop-color="white"/>
<stop offset="0.31" stop-color="#DE4024"/>
<stop offset="0.99" stop-color="#BF190B"/>
<stop offset="1" stop-color="#BF190B"/>
</linearGradient>
<linearGradient id="paint8_linear_23_459" x1="291.622" y1="279.82" x2="358.215" y2="216.912" gradientUnits="userSpaceOnUse">
<stop stop-color="#BD0012"/>
<stop offset="0.07" stop-color="white"/>
<stop offset="0.17" stop-color="white"/>
<stop offset="0.27" stop-color="#C82F1C"/>
<stop offset="0.33" stop-color="#820C01"/>
<stop offset="0.46" stop-color="#A31601"/>
<stop offset="0.72" stop-color="#B31301"/>
<stop offset="0.99" stop-color="#E82609"/>
<stop offset="1" stop-color="#E82609"/>
</linearGradient>
<linearGradient id="paint9_linear_23_459" x1="338.541" y1="286.736" x2="319.924" y2="282.515" gradientUnits="userSpaceOnUse">
<stop stop-color="#8C0C01"/>
<stop offset="0.54" stop-color="#990C00"/>
<stop offset="0.99" stop-color="#A80D0E"/>
<stop offset="1" stop-color="#A80D0E"/>
</linearGradient>
<linearGradient id="paint10_linear_23_459" x1="370.231" y1="262.632" x2="352.616" y2="248.128" gradientUnits="userSpaceOnUse">
<stop stop-color="#7E110B"/>
<stop offset="0.99" stop-color="#9E0C00"/>
<stop offset="1" stop-color="#9E0C00"/>
</linearGradient>
<linearGradient id="paint11_linear_23_459" x1="376.253" y1="233.293" x2="367.347" y2="224.546" gradientUnits="userSpaceOnUse">
<stop stop-color="#79130D"/>
<stop offset="0.99" stop-color="#9E120B"/>
<stop offset="1" stop-color="#9E120B"/>
</linearGradient>
<radialGradient id="paint12_radial_23_459" cx="0" cy="0" r="1" gradientUnits="userSpaceOnUse" gradientTransform="translate(356.392 246.947) scale(20.0857 21.8632)">
<stop stop-color="#A80D00"/>
<stop offset="0.99" stop-color="#7E0E08"/>
<stop offset="1" stop-color="#7E0E08"/>
</radialGradient>
<radialGradient id="paint13_radial_23_459" cx="0" cy="0" r="1" gradientUnits="userSpaceOnUse" gradientTransform="translate(328.576 275.76) scale(26.7013 29.0642)">
<stop stop-color="#A30C00"/>
<stop offset="0.99" stop-color="#800E08"/>
<stop offset="1" stop-color="#800E08"/>
</radialGradient>
<linearGradient id="paint14_linear_23_459" x1="309.661" y1="298.156" x2="301.893" y2="273.942" gradientUnits="userSpaceOnUse">
<stop stop-color="#8B2114"/>
<stop offset="0.43" stop-color="#9E100A"/>
<stop offset="0.99" stop-color="#B3100C"/>
<stop offset="1" stop-color="#B3100C"/>
</linearGradient>
<linearGradient id="paint15_linear_23_459" x1="360.704" y1="216.734" x2="376.01" y2="222.941" gradientUnits="userSpaceOnUse">
<stop stop-color="#B31000"/>
<stop offset="0.44" stop-color="#910F08"/>
<stop offset="0.99" stop-color="#791C12"/>
<stop offset="1" stop-color="#791C12"/>
</linearGradient>
<radialGradient id="paint16_radial_23_459" cx="0" cy="0" r="1" gradientUnits="userSpaceOnUse" gradientTransform="translate(459.929 237.555) scale(63.468 69.0847)">
<stop stop-color="#AEB2D5"/>
<stop offset="0.3" stop-color="#AEB2D5"/>
<stop offset="0.75" stop-color="#484C89"/>
<stop offset="1" stop-color="#484C89"/>
</radialGradient>
<linearGradient id="paint17_linear_23_459" x1="1012.46" y1="221.598" x2="1053.85" y2="259.75" gradientUnits="userSpaceOnUse">
<stop stop-color="#387EB8"/>
<stop offset="1" stop-color="#366994"/>
</linearGradient>
<linearGradient id="paint18_linear_23_459" x1="1035.93" y1="248.104" x2="1080.2" y2="287.077" gradientUnits="userSpaceOnUse">
<stop stop-color="#FFE052"/>
<stop offset="1" stop-color="#FFC331"/>
</linearGradient>
<clipPath id="clip0_23_459">
<rect width="113" height="123" fill="white" transform="translate(0 40)"/>
</clipPath>
<clipPath id="clip1_23_459">
<rect width="113" height="123" fill="white" transform="translate(282 194)"/>
</clipPath>
<clipPath id="clip2_23_459">
<rect width="113" height="123" fill="white" transform="translate(141 40)"/>
</clipPath>
<clipPath id="clip3_23_459">
<rect width="113" height="123" fill="white" transform="translate(423 40)"/>
</clipPath>
<clipPath id="clip4_23_459">
<rect width="113" height="123" fill="white" transform="translate(705 40)"/>
</clipPath>
<clipPath id="clip5_23_459">
<rect width="113" height="123" fill="white" transform="translate(282 40)"/>
</clipPath>
<clipPath id="clip6_23_459">
<rect width="113" height="123" fill="white" transform="translate(564 40)"/>
</clipPath>
<clipPath id="clip7_23_459">
<rect width="113" height="123" fill="white" transform="translate(846 40)"/>
</clipPath>
<clipPath id="clip8_23_459">
<rect width="113" height="123" fill="white" transform="translate(987 40)"/>
</clipPath>
<clipPath id="clip9_23_459">
<rect width="85.88" height="70.725" fill="white" transform="translate(1000.56 66.4449)"/>
</clipPath>
<clipPath id="clip10_23_459">
<rect width="113" height="123" fill="white" transform="translate(0 194)"/>
</clipPath>
<clipPath id="clip11_23_459">
<rect width="88.14" height="84.255" fill="white" transform="translate(12.4299 213.065)"/>
</clipPath>
<clipPath id="clip12_23_459">
<rect width="113" height="123" fill="white" transform="translate(136 354)"/>
</clipPath>
<clipPath id="clip13_23_459">
<rect width="113" height="123" fill="white" transform="translate(284 354)"/>
</clipPath>
<clipPath id="clip14_23_459">
<rect width="113" height="123" fill="white" transform="translate(564 348)"/>
</clipPath>
<clipPath id="clip15_23_459">
<rect width="113" height="123" fill="white" transform="translate(141 194)"/>
</clipPath>
<clipPath id="clip16_23_459">
<rect width="113" height="123" fill="white" transform="translate(423 194)"/>
</clipPath>
<clipPath id="clip17_23_459">
<rect width="113" height="123" fill="white" transform="translate(564 194)"/>
</clipPath>
<clipPath id="clip18_23_459">
<rect width="113" height="123" fill="white" transform="translate(705 194)"/>
</clipPath>
<clipPath id="clip19_23_459">
<rect width="113" height="123" fill="white" transform="translate(846 194)"/>
</clipPath>
<clipPath id="clip20_23_459">
<rect width="113" height="123" fill="white" transform="translate(987 194)"/>
</clipPath>
</defs>
</svg>
