<svg width="28" height="28" viewBox="0 0 28 28" fill="none" xmlns="http://www.w3.org/2000/svg">
<path fill-rule="evenodd" clip-rule="evenodd" d="M14 24.7917C12.2935 24.7917 10.7672 24.0204 9.75068 22.8074C9.1086 23.9893 7.85634 24.7917 6.41667 24.7917C4.32259 24.7917 2.625 23.0941 2.625 21V11.6667C2.625 9.57258 4.32259 7.87499 6.41667 7.87499C7.86604 7.87499 9.12548 8.68821 9.76359 9.88326C9.86782 9.71181 9.98014 9.52933 10.1012 9.33271L12.7594 5.01301C13.2265 4.25401 14.0539 3.79166 14.9451 3.79166C16.5181 3.79166 17.7209 5.19368 17.4817 6.7483L17.1982 8.59137C16.973 10.055 18.1054 11.375 19.5863 11.375H20.391C24.0013 11.375 26.3494 15.1744 24.7349 18.4035L23.3949 21.0834C22.2586 23.3561 19.9357 24.7917 17.3948 24.7917H14ZM14.2499 5.93018C14.3984 5.68874 14.6616 5.54166 14.9451 5.54166C15.4455 5.54166 15.8281 5.98766 15.7521 6.4822L15.4685 8.32527C15.0802 10.849 17.0329 13.125 19.5863 13.125H20.391C22.7004 13.125 24.2024 15.5553 23.1696 17.6209L21.8297 20.3008C20.9898 21.9806 19.2729 23.0417 17.3948 23.0417H14C11.9059 23.0417 10.2083 21.3441 10.2083 19.25V15.2438C10.2083 13.8723 10.2134 13.3206 10.3325 12.7982C10.3704 12.6321 10.4169 12.4681 10.4716 12.3068C10.6439 11.7994 10.9288 11.3269 11.6476 10.1589L14.2499 5.93018ZM6.41667 9.62499C7.54425 9.62499 8.45833 10.5391 8.45833 11.6667V21C8.45833 22.1276 7.54425 23.0417 6.41667 23.0417C5.28909 23.0417 4.375 22.1276 4.375 21V11.6667C4.375 10.5391 5.28909 9.62499 6.41667 9.62499Z" fill="#78FA7C"/>
</svg>
