<svg width="28" height="28" viewBox="0 0 28 28" fill="none" xmlns="http://www.w3.org/2000/svg">
<path fill-rule="evenodd" clip-rule="evenodd" d="M6.41667 3.79166C4.32259 3.79166 2.625 5.48924 2.625 7.58332V16.9167C2.625 19.0107 4.32259 20.7083 6.41667 20.7083C7.86604 20.7083 9.12548 19.8951 9.76359 18.7001C9.86784 18.8715 9.98019 19.0541 10.1012 19.2507L12.7594 23.5703C13.2265 24.3293 14.0539 24.7917 14.9451 24.7917C16.5181 24.7917 17.7209 23.3896 17.4817 21.835L17.1982 19.9919C16.973 18.5283 18.1054 17.2083 19.5863 17.2083H20.391C24.0013 17.2083 26.3494 13.409 24.7349 10.1798L23.3949 7.49994C22.2586 5.22726 19.9357 3.79166 17.3948 3.79166H14C12.2935 3.79166 10.7672 4.56296 9.75068 5.77596C9.1086 4.59402 7.85633 3.79166 6.41667 3.79166ZM8.45833 7.58332C8.45833 6.45574 7.54425 5.54166 6.41667 5.54166C5.28909 5.54166 4.375 6.45574 4.375 7.58332V16.9167C4.375 18.0442 5.28909 18.9583 6.41667 18.9583C7.54425 18.9583 8.45833 18.0442 8.45833 16.9167V7.58332ZM10.3325 15.7851C10.2134 15.2627 10.2083 14.711 10.2083 13.3396V9.33332C10.2083 7.23924 11.9059 5.54166 14 5.54166H17.3948C19.2729 5.54166 20.9898 6.60275 21.8297 8.28256L23.1696 10.9624C24.2024 13.028 22.7004 15.4583 20.391 15.4583H19.5863C17.0329 15.4583 15.0802 17.7343 15.4685 20.258L15.7521 22.1011C15.8281 22.5957 15.4455 23.0417 14.9451 23.0417C14.6616 23.0417 14.3984 22.8946 14.2499 22.6531L11.6476 18.4244C10.9288 17.2564 10.6439 16.7839 10.4716 16.2765C10.4169 16.1152 10.3704 15.9512 10.3325 15.7851Z" fill="#FF6F6F"/>
</svg>
