<svg width="28" height="28" viewBox="0 0 28 28" fill="none" xmlns="http://www.w3.org/2000/svg">
<path fill-rule="evenodd" clip-rule="evenodd" d="M18.8583 4.98817C17.3291 0.281694 10.6707 0.281694 9.14143 4.98817C8.69182 6.37193 7.40232 7.30881 5.94735 7.30881C0.998669 7.30881 -1.05889 13.6413 2.94468 16.5501C4.12177 17.4053 4.61432 18.9212 4.16471 20.305C2.63548 25.0114 8.02224 28.9252 12.0258 26.0164C13.2029 25.1612 14.7968 25.1612 15.9739 26.0164C19.9775 28.9252 25.3642 25.0114 23.835 20.305C23.3854 18.9212 23.878 17.4053 25.0551 16.5501C29.0586 13.6413 27.0011 7.30881 22.0524 7.30881C20.5974 7.30881 19.3079 6.37193 18.8583 4.98817ZM10.8058 5.52895C11.8111 2.43477 16.1886 2.43477 17.1939 5.52895C17.8778 7.63375 19.8393 9.05881 22.0524 9.05881C25.3058 9.05881 26.6585 13.222 24.0264 15.1343C22.236 16.4351 21.4868 18.7409 22.1707 20.8457C23.176 23.9399 19.6346 26.5129 17.0025 24.6006C15.2121 23.2998 12.7876 23.2998 10.9972 24.6006C8.36512 26.5129 4.82369 23.9399 5.82905 20.8457C6.51295 18.7409 5.76375 16.4351 3.9733 15.1343C1.34123 13.222 2.69393 9.05881 5.94735 9.05881C8.16047 9.05881 10.1219 7.63375 10.8058 5.52895Z" fill="#80BEEA"/>
</svg>
